<svg width="324" height="289" viewBox="0 0 324 289" fill="none" xmlns="http://www.w3.org/2000/svg">
<path fill-rule="evenodd" clip-rule="evenodd" d="M169.941 5.51888C137.235 -2.42801 101.498 -2.57493 71.7268 13.1108C39.5686 30.0541 10.1679 58.285 2.44094 93.7699C-5.07785 128.299 16.4852 161.246 32.6221 192.692C46.3042 219.355 61.11 247.551 88.0827 260.661C113.236 272.887 142.228 255.631 169.941 259.435C204.944 264.24 237.388 299.297 269.962 285.629C302.07 272.156 312.233 230.686 319.52 196.671C326.268 165.17 324.954 131.019 309.092 102.97C294.638 77.4108 262.716 70.5231 238.652 53.6704C215.169 37.2244 197.809 12.2902 169.941 5.51888Z" fill="#EBFFF4"/>
</svg>
