<svg width="324" height="289" viewBox="0 0 324 289" fill="none" xmlns="http://www.w3.org/2000/svg">
<path fill-rule="evenodd" clip-rule="evenodd" d="M169.941 5.29025C137.235 -2.65664 101.498 -2.80357 71.7268 12.8822C39.5686 29.8254 10.1679 58.0564 2.44094 93.5412C-5.07785 128.07 16.4852 161.018 32.6221 192.464C46.3042 219.126 61.11 247.323 88.0827 260.433C113.236 272.658 142.228 255.402 169.941 259.207C204.944 264.012 237.388 299.069 269.962 285.4C302.07 271.927 312.233 230.458 319.52 196.442C326.268 164.941 324.954 130.791 309.092 102.741C294.638 77.1821 262.716 70.2944 238.652 53.4417C215.169 36.9958 197.809 12.0616 169.941 5.29025Z" fill="#EBFFF4"/>
</svg>
