<svg width="324" height="289" viewBox="0 0 324 289" fill="none" xmlns="http://www.w3.org/2000/svg">
<path fill-rule="evenodd" clip-rule="evenodd" d="M169.941 5.29025C137.235 -2.65664 101.498 -2.80357 71.7268 12.8822C39.5685 29.8254 10.1679 58.0564 2.44095 93.5412C-5.07785 128.07 16.4852 161.018 32.6221 192.464C46.3042 219.126 61.11 247.323 88.0827 260.433C113.236 272.658 142.228 255.402 169.941 259.207C204.944 264.012 237.388 299.069 269.962 285.4C302.07 271.927 312.233 230.458 319.52 196.442C326.268 164.941 324.954 130.791 309.092 102.741C294.638 77.1821 262.716 70.2944 238.652 53.4417C215.169 36.9958 197.809 12.0616 169.941 5.29025Z" fill="#EBFFF4"/>
<path fill-rule="evenodd" clip-rule="evenodd" d="M237.57 268.136C230.633 268.157 223.892 268.395 216.936 268.418C188.657 268.513 160.118 268.375 131.737 267.228C123.715 266.904 121.713 266.912 113.726 266.408C109.01 266.391 94.8441 266.001 95.5533 259.572C95.8664 247.598 98.8284 235.675 99.7612 223.733C101.552 201.284 103.076 178.133 112.067 157.136C114.148 152.122 118.618 148.843 123.042 145.894C127.479 142.713 128.568 139.181 132.663 135.588C133.529 134.828 138.446 134.519 141.092 132.591C144.943 129.786 146.852 125.193 148.289 124.411C149.346 123.836 149.327 119.867 151.446 118.462C154.289 116.577 163.35 115.176 166.646 114.913C169.811 114.662 175.314 115.19 178.283 116.35C183.233 118.284 185.208 121.973 187.388 126.725C216.192 135.636 242.52 150.724 250.697 181.157C257.748 206.682 258.006 234.046 255.282 260.224C254.737 262.139 255.119 265.14 253.466 266.408C259.21 266.738 238.349 267.924 237.57 268.136Z" fill="white"/>
<path fill-rule="evenodd" clip-rule="evenodd" d="M106.557 242.933C107.103 242.66 107.671 242.349 108.293 242.327C109.362 242.29 109.364 240.625 108.293 240.662C107.36 240.695 106.54 241.085 105.718 241.495C104.759 241.974 105.603 243.41 106.557 242.933M108.293 196.075C107.564 196.075 106.828 196.168 106.268 196.678C105.935 196.982 105.961 197.548 106.268 197.855C106.596 198.184 107.112 198.158 107.444 197.855C107.336 197.954 107.443 197.856 107.483 197.834C107.492 197.829 107.497 197.826 107.5 197.824C107.508 197.821 107.516 197.82 107.53 197.816C107.617 197.794 107.703 197.773 107.791 197.757C107.792 197.761 107.976 197.745 108.019 197.743C108.111 197.74 108.202 197.739 108.293 197.739C108.744 197.739 109.125 197.359 109.125 196.907C109.125 196.458 108.743 196.075 108.293 196.075M116.114 214.748C116.352 215.793 117.955 215.348 117.717 214.305C117.372 212.789 117.435 211.235 117.717 209.714C117.912 208.665 116.309 208.219 116.114 209.271C115.775 211.096 115.699 212.928 116.114 214.748M118.214 154.92C119.453 154.626 120.678 154.591 121.945 154.59C123.017 154.59 123.015 152.925 121.945 152.926C120.532 152.926 119.152 152.987 117.772 153.315C116.73 153.563 117.174 155.167 118.214 154.92M122.365 195.468C123.083 195.109 123.802 194.749 124.52 194.39C125.479 193.91 124.635 192.475 123.681 192.952L121.525 194.031C120.567 194.511 121.41 195.946 122.365 195.468M122.664 228.251C123.575 229.566 124.856 230.383 126.394 230.791C127.432 231.066 127.87 229.46 126.836 229.186C125.737 228.894 124.76 228.363 124.1 227.411C123.494 226.535 122.052 227.369 122.664 228.251M128.411 169.64C128.658 169.179 129.029 168.984 129.489 168.973C130.56 168.949 130.56 167.284 129.489 167.309C128.439 167.332 127.477 167.86 126.975 168.8C126.47 169.745 127.906 170.585 128.411 169.64M138.96 180.955C139.259 181.28 139.837 181.272 140.136 180.955C140.32 180.761 140.474 180.545 140.596 180.307C140.642 180.217 140.685 180.125 140.736 180.038C140.759 179.999 140.784 179.96 140.81 179.923C140.818 179.915 140.836 179.896 140.855 179.877C141.175 179.538 141.167 179.039 140.855 178.699C140.557 178.374 139.979 178.382 139.679 178.699C139.496 178.893 139.341 179.11 139.22 179.347C139.174 179.437 139.13 179.529 139.079 179.617C139.057 179.656 139.031 179.694 139.006 179.732C138.997 179.74 138.979 179.758 138.96 179.778C138.641 180.116 138.649 180.615 138.96 180.955M139.847 205.537C140.93 206.033 142.118 206.033 143.202 205.537C143.612 205.349 143.709 204.756 143.5 204.398C143.257 203.983 142.77 203.912 142.362 204.099C141.871 204.324 141.177 204.324 140.687 204.099C140.277 203.911 139.794 203.978 139.549 204.398C139.338 204.758 139.439 205.349 139.847 205.537M142.802 222.936C142.988 223.377 143.39 223.611 143.86 223.629C144.325 223.647 144.672 223.233 144.691 222.797C144.704 222.514 144.551 222.273 144.332 222.124C144.332 222.109 144.332 222.093 144.332 222.078C144.332 221.611 143.951 221.265 143.5 221.245C143.051 221.225 142.668 221.642 142.669 222.078C142.669 222.371 142.687 222.663 142.802 222.936M147.093 250.597C148.42 250.619 149.717 250.935 151.045 250.957C152.117 250.974 152.114 249.309 151.045 249.292C149.717 249.271 148.42 248.954 147.093 248.933C146.02 248.915 146.024 250.58 147.093 250.597M152.612 143.919C153.389 144.66 154.349 145.025 155.295 145.487C156.254 145.956 157.096 144.52 156.135 144.05C155.333 143.658 154.446 143.368 153.788 142.742C153.013 142.002 151.835 143.178 152.612 143.919M154.698 163.107C155.243 162.834 155.811 162.523 156.433 162.501C157.503 162.464 157.504 160.799 156.433 160.836C155.5 160.869 154.68 161.259 153.858 161.669C152.899 162.148 153.743 163.584 154.698 163.107M164.696 240.117C164.942 239.656 165.313 239.461 165.774 239.45C166.845 239.426 166.845 237.761 165.774 237.786C164.724 237.81 163.761 238.337 163.26 239.277C162.755 240.222 164.191 241.062 164.696 240.117M168.158 203.968C168.489 203.664 168.466 203.099 168.158 202.791C167.799 202.431 167.44 202.072 167.08 201.712C166.752 201.383 166.237 201.407 165.905 201.712C165.574 202.016 165.597 202.581 165.905 202.889C166.264 203.249 166.623 203.608 166.982 203.968C167.311 204.297 167.826 204.273 168.158 203.968M172.241 260.306C173.441 260.278 174.565 259.933 175.695 259.557C176.707 259.22 176.271 257.613 175.253 257.952C174.271 258.279 173.285 258.617 172.241 258.641C171.17 258.666 171.17 260.331 172.241 260.306M177.63 224.708C178.714 224.678 179.613 224.125 180.373 223.385C181.142 222.637 179.965 221.461 179.197 222.208C178.762 222.631 178.26 223.026 177.63 223.043C176.56 223.073 176.559 224.738 177.63 224.708M174.283 178.928C174.27 179.371 174.083 179.846 173.808 180.138C173.073 180.917 174.248 182.095 174.984 181.315C175.592 180.671 175.921 179.809 175.946 178.928C175.977 177.855 174.314 177.859 174.283 178.928M186.97 142.672C187.318 141.99 187.774 141.19 188.468 140.813C189.41 140.301 188.569 138.864 187.628 139.375C186.685 139.888 186.01 140.897 185.534 141.831C185.047 142.785 186.483 143.626 186.97 142.672M189.126 159.984C189.512 159.973 189.894 159.907 190.267 159.806C190.426 159.763 190.583 159.713 190.742 159.67C190.81 159.651 191.1 159.615 190.922 159.624C191.372 159.6 191.754 159.263 191.754 158.792C191.754 158.36 191.371 157.936 190.922 157.96C190.305 157.993 189.743 158.302 189.126 158.319C188.056 158.35 188.055 160.014 189.126 159.984M194.514 186.593H196.311C197.383 186.593 197.381 184.928 196.311 184.928H194.514C193.443 184.928 193.444 186.593 194.514 186.593M196.61 260.192C197.154 260.465 197.796 260.723 198.238 261.141C199.016 261.877 200.193 260.701 199.414 259.964C198.852 259.432 198.133 259.097 197.449 258.755C197.046 258.553 196.55 258.644 196.311 259.053C196.095 259.423 196.208 259.991 196.61 260.192M200.623 239.158C200.693 239.139 200.767 239.126 200.837 239.116C201.12 239.078 201.416 239.091 201.7 239.091C202.772 239.09 202.77 237.425 201.7 237.426C200.856 237.427 199.978 237.438 199.315 238.03C198.979 238.33 199.011 238.902 199.315 239.207C199.646 239.537 200.156 239.506 200.491 239.207C200.456 239.238 200.577 239.171 200.623 239.158M201.699 210.87C201.458 210.372 201.454 210.046 201.453 209.492C201.453 208.419 199.789 208.421 199.79 209.492C199.791 210.297 199.91 210.982 200.263 211.71C200.46 212.117 201.036 212.222 201.401 212.009C201.809 211.77 201.895 211.274 201.699 210.87M206.508 171.82C207.473 172.149 208.334 172.614 209.183 173.175C210.08 173.767 210.912 172.325 210.023 171.737C209.054 171.097 208.051 170.59 206.95 170.215C205.933 169.869 205.5 171.477 206.508 171.82M212.118 143.803C212.835 143.823 213.574 144.098 214.213 144.409C215.173 144.875 216.015 143.439 215.052 142.971C214.14 142.528 213.142 142.167 212.118 142.138C211.045 142.108 211.05 143.773 212.118 143.803M214.633 218.595C214.915 218.608 215.156 218.455 215.305 218.236C215.321 218.236 215.336 218.235 215.351 218.235C215.817 218.235 216.163 217.854 216.183 217.403C216.203 216.954 215.786 216.57 215.351 216.571C215.058 216.571 214.767 216.589 214.494 216.704C214.053 216.89 213.819 217.292 213.801 217.763C213.784 218.229 214.196 218.575 214.633 218.595M218.723 161.033C219.744 161.367 220.178 159.759 219.165 159.428C217.976 159.039 216.761 158.738 215.572 158.349C214.551 158.015 214.117 159.623 215.13 159.954C216.319 160.343 217.534 160.644 218.723 161.033M222.453 192.454C222.77 193.476 224.375 193.037 224.057 192.011C223.75 191.021 223.728 190.025 223.727 188.996C223.727 187.924 222.063 187.925 222.064 188.996C222.065 190.167 222.104 191.327 222.453 192.454M233.573 230.088C233.633 230.503 233.962 230.801 234.392 230.821C234.83 230.84 235.239 230.424 235.224 229.988C235.193 229.15 234.51 228.467 233.673 228.437C233.208 228.42 232.861 228.832 232.842 229.269C232.823 229.694 233.177 230.026 233.573 230.088M239.2 182.248C240.079 182.542 241.018 182.821 241.707 183.472C242.486 184.208 243.664 183.032 242.883 182.295C241.975 181.437 240.806 181.032 239.642 180.643C238.623 180.302 238.19 181.911 239.2 182.248M243.014 214.587C243.256 215 243.745 215.075 244.152 214.886C244.698 214.632 245.3 214.64 245.888 214.64C246.96 214.639 246.958 212.974 245.888 212.975C244.981 212.976 244.144 213.061 243.313 213.448C242.904 213.639 242.804 214.227 243.014 214.587M245.17 253.834C245.635 253.851 245.982 253.438 246.001 253.001C246.02 252.576 245.666 252.244 245.27 252.182C245.21 251.768 244.881 251.469 244.451 251.45C244.013 251.43 243.603 251.846 243.619 252.282C243.65 253.12 244.332 253.803 245.17 253.834M93.6447 260.128C93.9272 259.11 94.5738 258.288 95.0623 257.373C95.2262 257.064 95.2831 256.872 95.3719 256.646C95.4925 256.888 95.7266 257.069 96.0786 257.07C96.7538 257.07 97.5437 257.026 98.1738 257.316C98.5836 257.504 99.0663 257.437 99.3114 257.017C99.5221 256.656 99.4214 256.065 99.0131 255.878C98.0844 255.452 97.0861 255.405 96.0786 255.405C95.8297 255.405 95.6413 255.497 95.5083 255.634C95.1233 250.357 95.1328 245.076 95.4971 239.795C95.8856 234.152 96.7798 228.621 97.7154 223.051C98.1684 220.35 98.7568 217.621 98.6424 214.871C98.5281 212.138 97.3576 209.591 98.1871 206.851C98.5198 205.752 99.0894 204.745 99.4595 203.659C99.8566 202.489 99.8212 201.334 99.6404 200.123C99.2682 197.657 98.6509 195.221 99.6385 192.813C100.075 191.746 100.782 190.793 101.123 189.69C101.547 188.318 101.489 186.801 101.559 185.38C101.703 182.513 101.74 179.627 101.977 176.765C102.083 175.484 102.314 174.268 102.84 173.093C103.345 171.961 104.096 170.931 104.43 169.73C104.763 168.548 104.792 167.301 104.971 166.092C105.158 164.815 105.451 163.556 105.846 162.328C107.372 157.575 110.169 153.305 113.472 149.604C116.984 145.669 121.181 142.705 125.637 139.944C127.979 138.492 130.322 137.04 132.663 135.588C132.713 135.86 132.887 136.111 133.22 136.222C134.099 136.516 135.038 136.795 135.727 137.446C136.505 138.182 137.683 137.006 136.903 136.269C136.089 135.5 135.067 135.096 134.026 134.74C135.093 134.067 136.171 133.37 137.375 132.981C138.429 132.64 139.984 132.938 140.839 132.164C141.51 131.554 141.722 130.424 141.98 129.596C142.302 128.568 142.581 127.484 142.99 126.485C143.269 125.802 143.674 125.147 144.186 124.618C144.41 123.753 144.822 122.962 145.55 122.481C147.454 121.22 149.793 122.473 150.631 124.271C151.323 124.269 152.053 124.421 152.726 124.462C154.111 124.55 155.498 124.589 156.884 124.585C159.597 124.577 162.313 124.4 165.003 124.04C169.814 123.395 174.481 122.094 179.211 121.081C179.238 121.018 179.269 120.956 179.307 120.894C180.325 119.183 182.864 119.472 184.463 120.119C185.149 120.396 185.847 120.746 186.24 121.395C186.656 121.676 187.016 122.017 187.255 122.377C187.75 123.12 188.132 124.618 189.136 124.743C189.797 124.824 190.469 124.697 191.14 124.793C191.98 124.91 192.733 125.205 193.508 125.542C199.413 128.108 205.517 130.961 211.925 131.956C213.428 132.189 214.958 132.43 216.263 133.273C217.324 133.957 218.143 134.898 219.018 135.791C219.871 136.66 220.573 137.045 221.789 137.201C223.266 137.391 224.544 137.799 225.623 138.872C226.519 139.765 227.103 140.905 227.806 141.942C228.522 142.999 229.571 143.594 230.661 144.208C233.237 145.66 235.636 147.414 237.725 149.518C242.127 153.955 244.792 159.656 247.478 165.212C250.382 171.222 253.098 177.304 254.981 183.722C256.827 190.023 257.925 196.505 258.432 203.047C258.967 209.912 259.041 216.804 259.486 223.673C259.709 227.104 259.877 230.54 260.048 233.973C260.214 237.365 260.457 240.763 260.418 244.159C260.343 250.724 259.031 257.31 256.738 263.457C256.166 264.987 255.532 266.495 254.857 267.981C254.264 269.286 252.237 269.14 251.601 267.981C251.455 267.715 251.341 267.44 251.245 267.161C249.582 267.176 247.902 267.047 246.249 267.201C243.33 267.473 240.405 267.625 237.478 267.806C231.686 268.166 225.883 268.406 220.089 268.736C219.527 268.768 218.964 268.801 218.403 268.834C222.532 256.042 221.996 242.213 222.65 228.909C222.702 227.837 221.039 227.843 220.986 228.909C220.33 242.27 220.889 256.135 216.614 268.947C214.955 269.06 213.299 269.197 211.648 269.398C210.313 269.558 208.972 269.748 207.625 269.681C206.097 269.608 204.604 269.259 203.114 268.955C200.405 268.403 197.795 268.653 195.076 268.992C192.167 269.356 189.249 269.558 186.321 269.685C174.6 270.199 162.799 270.667 151.082 269.883C148.246 269.694 145.416 269.427 142.599 269.065C139.697 268.693 136.826 268.066 133.926 267.711C131.067 267.361 128.439 268.32 125.614 268.497C122.732 268.678 119.774 268.077 116.919 267.731C115.988 267.618 115.056 267.508 114.123 267.399C115.324 259.164 116.006 250.867 116.669 242.573C116.755 241.504 115.091 241.513 115.006 242.573C114.348 250.802 113.681 259.038 112.483 267.208C107.54 266.632 102.592 266.05 97.7006 265.153C96.3077 264.899 94.923 264.485 94.0894 263.241C93.4721 262.319 93.3471 261.189 93.6447 260.128" fill="black"/>
<path fill-rule="evenodd" clip-rule="evenodd" d="M134.554 53.817C136.026 48.5116 135.815 47.9377 138.008 42.8701C145.281 28.1479 193.88 33.0773 198.84 47.7733C201.531 55.7461 200.899 66.9743 201.599 73.8876C201.813 77.5531 202.024 81.2187 202.242 84.8838C202.317 86.1496 202.394 87.4153 202.471 88.6809C202.622 91.1447 202.769 93.6084 202.907 96.073C203.82 103.665 200.008 104.438 193.469 104.213C191.741 108.387 188.941 111.872 185.482 114.707C186.317 116.98 183.29 118.156 181.657 119.065C172.773 124.03 161.86 127.059 152.019 124.267C149.128 123.447 137.187 120.606 133.516 111.81C131.713 107.491 128.048 85.1249 132.881 65.0053L134.554 53.817Z" fill="white"/>
<path fill-rule="evenodd" clip-rule="evenodd" d="M165.618 19.2112C164.244 18.968 162.708 19.0616 161.92 20.4121C161.749 20.7032 161.641 20.9969 161.589 21.2861C157.834 20.4413 153.936 20.3497 150.101 20.9032C148.957 21.0674 148.556 22.5927 149.059 23.4648C149.111 23.5543 149.163 23.6415 149.219 23.727C148.017 23.8246 146.818 24.0327 145.629 24.3533C144.782 24.5822 143.992 25.6789 144.368 26.5778C144.402 26.6569 144.437 26.7359 144.472 26.8148C142.604 27.1292 140.818 27.8638 139.256 29.0499C139.069 29.1893 138.897 29.3703 138.753 29.5764C135.262 29.1829 131.668 29.9051 128.551 31.5907C127.678 32.0628 127.256 33.4239 127.849 34.2729C128.034 34.5372 128.227 34.789 128.435 35.0324C127.079 35.5339 125.88 36.3453 125.071 37.6668C124.192 39.1006 123.921 40.9463 124.393 42.5236C123.408 43.5287 122.892 45.0684 123.244 46.6124C123.564 48.0213 124.427 48.9159 125.533 49.453C125.308 50.1397 125.489 50.92 125.998 51.4504C126.78 52.2641 127.716 52.8883 128.734 53.2985C128.736 53.5627 128.803 53.8353 128.936 54.0892C129.855 55.8536 131.836 57.0253 133.851 57.2022C133.173 60.0507 132.616 62.9351 132.075 65.8025C131.115 70.9028 130.371 76.053 129.917 81.2238L129.862 81.8632C129.124 90.613 128.952 99.7794 130.73 108.411C131.863 113.906 135.298 118.538 139.88 121.676C144.539 124.868 150.231 126.456 155.832 126.708C158.689 126.835 161.572 126.593 164.371 126.007C165.699 125.728 166.982 125.333 168.244 124.829C169.602 124.286 170.72 123.485 171.868 122.584C172.465 122.115 172.123 121.011 171.417 120.871C170.912 120.769 170.413 120.659 169.909 120.567C169.448 120.482 168.945 120.944 169.04 121.371L168.067 121.621C167.743 121.705 167.418 121.79 167.095 121.877L166.61 122.009C165.232 122.394 163.822 122.719 162.408 122.95C159.531 123.418 156.537 123.429 153.645 123.064C148.782 122.455 143.816 120.719 140.034 117.521C138.179 115.952 136.635 114.094 135.514 111.936C134.09 109.195 133.66 106.142 133.302 103.111C132.269 94.344 132.587 85.5647 133.389 76.7958C133.788 72.4343 134.333 68.0811 134.911 63.7383C135.208 61.5117 135.529 59.281 135.792 57.0461C136.381 56.888 136.942 56.6258 137.445 56.245C137.786 55.987 137.986 55.6871 138.073 55.3814C138.581 55.2855 139.068 55.0065 139.419 54.5347L139.464 54.4721C140.385 53.138 141.978 52.3746 143.452 51.819C144.346 51.4819 145.256 51.1882 146.163 50.8888C147.107 50.5746 148.105 50.1105 149.096 49.9899C150.221 49.8567 151.354 50.1959 152.489 50.0752C153.521 49.9628 154.429 49.5922 155.171 48.8516C155.431 48.5936 155.656 48.296 155.834 47.9756C159.296 48.7161 162.932 47.782 166.529 48.0068C168.895 48.1566 170.982 49.6215 173.373 49.582C174.026 49.5716 174.658 49.3427 175.117 48.9411C177.373 49.3718 179.666 50.1998 181.787 50.9115C183.883 51.615 185.899 52.5618 187.97 53.3297C187.972 53.3318 187.972 53.3318 187.972 53.3338C188.242 54.2099 189.049 54.5884 189.908 54.4346C192.716 53.9331 195.082 52.16 197.816 51.511C198.569 54.2557 199.378 56.9648 199.93 59.7638C200.49 62.5875 200.883 65.4488 201.143 68.3162C201.405 71.1941 201.529 74.1011 201.536 76.9894C201.538 78.4626 201.5 79.9399 201.45 81.4131C201.41 82.6474 201.175 84.208 201.621 85.395L201.66 85.4958H201.662C201.717 85.6687 201.96 85.7728 202.097 85.6126C202.935 84.6385 203.134 83.0885 203.367 81.8647C203.65 80.3791 203.831 78.8788 203.976 77.3741C204.267 74.3548 204.332 71.3481 204.178 68.3162C203.877 62.3482 202.92 56.045 200.879 50.404C201.507 50.462 201.787 49.5362 201.829 49.0139C201.908 47.9643 201.744 46.8504 201.566 45.7976L201.38 44.7078C201.203 43.6791 201.017 42.6773 200.667 41.6767C199.826 39.2752 198.619 37.0197 197.114 34.97C194.043 30.7895 189.787 27.6243 184.941 25.7995C184.637 25.6851 184.35 25.6872 184.097 25.7744C179.687 23.3961 174.947 21.5649 170.132 20.2623C168.643 19.8607 167.136 19.482 165.618 19.2112ZM202.238 86.3054C200.236 85.0487 196.105 84.72 194.989 87.3979C194.943 87.5061 195.072 87.6018 195.168 87.5768L195.441 87.5077C196.49 87.2475 197.397 87.0979 198.473 87.5292C199.419 87.9079 200.338 88.5007 200.964 89.3164C202.443 91.2455 202.604 93.8659 202.466 96.2058L202.459 96.3188C202.33 98.3725 201.804 100.874 199.798 101.889C198.781 102.403 197.681 102.366 196.577 102.357C195.319 102.349 194.034 102.486 192.833 102.874C192.161 103.09 191.845 103.98 192.402 104.503C192.587 104.676 192.781 104.838 192.985 104.983C192.375 105.633 191.777 106.29 191.197 106.983C190.213 108.159 189.167 109.295 188.076 110.371C187.02 111.409 185.901 112.414 184.695 113.276C183.427 114.179 181.91 114.814 180.812 115.921C180.097 116.641 180.219 117.646 180.812 118.374C182.283 120.184 184.786 118.281 186.193 117.211L186.363 117.082C187.824 115.975 189.213 114.78 190.396 113.374C191.602 111.938 192.646 110.41 193.417 108.698C193.87 107.691 194.159 106.74 194.315 105.745C196.843 106.844 200.03 106.494 202.297 104.948C205.305 102.896 206.149 99.1301 206.159 95.6923L206.159 95.4885C206.137 92.1469 205.26 88.2019 202.238 86.3054ZM196.535 91.1487L196.442 91.1498C195.329 91.1739 194.336 91.5753 193.39 92.1283L193.292 92.1861C192.373 92.7333 191.055 93.1722 190.569 94.1962C190.278 94.8142 190.299 95.5217 190.806 96.0334C191.725 96.9617 193.111 96.8077 194.105 96.0833C194.847 95.5404 195.336 94.7268 196.064 94.1773C197.432 93.1412 199.59 93.1995 201.014 94.0963C201.101 94.1525 201.186 94.0464 201.147 93.9631C200.272 92.172 198.539 91.1418 196.535 91.1487V91.1487Z" fill="black"/>
<path fill-rule="evenodd" clip-rule="evenodd" d="M146.691 110.906C148.222 111.35 149.866 111.39 151.427 110.931C152.843 110.515 154.297 109.6 155.339 108.389C156.265 107.313 156.865 106.006 156.841 104.61C156.838 104.45 156.781 104.317 156.694 104.214C156.6 104.103 156.468 104.027 156.327 103.993C156.182 103.959 156.028 103.971 155.898 104.031C155.779 104.085 155.678 104.176 155.615 104.309C155.455 104.52 155.295 104.727 155.135 104.929C153.847 106.521 152.6 107.71 150.664 108.137C149.613 108.368 148.564 108.266 147.601 107.912C146.57 107.534 145.639 106.869 144.909 106.019C144.579 105.634 144.189 105.477 143.808 105.475C143.377 105.472 142.95 105.672 142.629 105.993C142.313 106.309 142.101 106.737 142.082 107.186C142.065 107.579 142.193 107.99 142.535 108.357C143.658 109.565 145.115 110.449 146.691 110.906ZM146.738 90.973C145.168 91.9281 142.776 94.1553 144.465 96.5232C146.453 98.6111 149.315 96.2172 150.726 95.1346C152.033 94.2955 153.503 96.4535 152.289 97.4333C142.097 104.986 137.961 91.2228 145.944 89.85C146.823 89.6987 147.149 90.6775 146.738 90.973ZM161.424 86.7702C161.929 86.4472 162.522 86.3364 163.18 86.6359C163.694 86.8699 164.596 87.6499 165.223 88.6753C165.652 89.3769 165.957 90.1998 165.894 91.057C165.879 91.2561 165.952 91.4029 166.068 91.5114C166.16 91.5972 166.292 91.6601 166.447 91.6798C166.579 91.6966 166.727 91.6815 166.847 91.644C167.075 91.5727 167.196 91.4244 167.242 91.3034C167.681 90.1356 167.492 88.8324 166.999 87.6567C166.335 86.07 165.128 84.7409 164.337 84.3124C162.984 83.5789 161.388 83.5451 160.033 84.2924C158.88 84.9284 158.159 85.9552 157.442 87.0019C157.289 87.2244 157.138 87.4453 156.981 87.6623C156.668 88.097 156.637 88.5283 156.758 88.898C156.893 89.3077 157.236 89.6534 157.664 89.8343C158.061 90.0015 158.521 90.0251 158.928 89.8533C159.271 89.7081 159.587 89.4252 159.787 88.9451C160.123 88.1366 160.683 87.2446 161.424 86.7702V86.7702ZM135.797 88.569C136.142 88.7492 136.413 88.8036 136.796 88.6886C137.008 88.6249 137.218 88.5027 137.382 88.3386C137.544 88.1758 137.661 87.9735 137.707 87.749C137.819 87.195 138.122 86.6764 138.554 86.3384C138.922 86.0494 139.388 85.8963 139.904 85.9827C140.462 86.0758 140.993 86.4335 141.358 86.8553C141.481 86.9964 141.576 87.1567 141.673 87.3159C141.853 87.6136 142.028 87.8903 142.276 88.1089C142.371 88.1921 142.513 88.2497 142.65 88.2497C142.706 88.2497 142.763 88.2406 142.817 88.2238C143.371 87.6666 143.478 87.2439 143.46 86.8246C143.441 86.385 143.268 85.9398 142.988 85.5245C142.332 84.5502 141.085 83.7514 140.244 83.5705C139.092 83.3227 137.948 83.6202 137.031 84.2641C136.088 84.9267 135.388 85.9553 135.17 87.1146C135.118 87.3938 135.14 87.6952 135.246 87.9565C135.35 88.2118 135.531 88.4305 135.797 88.569ZM158.884 76.383C159.575 77.0571 160.393 77.1615 161.221 77.2544C161.681 77.3065 162.048 77.3484 162.409 77.43C163.402 77.6544 164.384 77.9923 165.279 78.4789C166.215 78.9877 167.235 79.6012 167.969 80.3872C168.144 80.5742 168.308 80.7704 168.473 80.9671C168.623 81.1465 168.768 81.3191 168.921 81.4856C169.096 81.6768 169.262 81.8773 169.427 82.0771C169.53 82.2458 169.55 82.2873 169.571 82.3305C169.602 82.3954 169.638 82.468 169.679 82.5459C169.735 82.6526 169.801 82.7694 169.871 82.8753C169.986 83.0689 170.047 83.1222 170.101 83.146C170.189 83.1855 170.273 83.2049 170.355 83.1944C170.431 83.1845 170.503 83.1478 170.574 83.0877C170.929 82.7876 171.034 82.295 171.023 81.7722C171.007 80.9788 170.715 80.1004 170.445 79.5604C169.818 78.3057 168.949 77.0013 167.904 76.0648C166.712 74.9959 165.407 74.1867 163.908 73.629C162.977 73.2824 161.899 72.9642 160.884 73.0044C160.154 73.0333 159.457 73.2506 158.881 73.7932C158.527 74.1263 158.358 74.6001 158.358 75.0735C158.358 75.5564 158.534 76.0421 158.884 76.383ZM134.391 82.5559C134.435 82.628 134.496 82.6777 134.563 82.7076C134.634 82.7389 134.714 82.7479 134.79 82.735C134.865 82.7223 134.937 82.6879 134.994 82.6354C135.049 82.5851 135.091 82.5184 135.109 82.4367C135.568 80.4191 136.459 78.9181 138.362 77.9501C139.297 77.4739 140.373 77.1714 141.392 76.9301C141.688 76.86 142 76.8146 142.315 76.7686C143.302 76.6243 144.297 76.4591 144.94 75.6605C145.328 75.1795 145.491 74.5643 145.399 74.0016C145.312 73.4719 145.003 72.9862 144.44 72.6951C143.041 71.9707 141.301 72.6815 139.888 73.287C139.783 73.3319 139.68 73.376 139.579 73.4185C138.197 74.0025 136.936 74.7734 135.9 75.8758C135.078 76.7503 134.316 78.0432 134.009 79.3733C133.754 80.4798 133.814 81.6094 134.391 82.5559Z" fill="black"/>
<path fill-rule="evenodd" clip-rule="evenodd" d="M165.26 112.37C163.577 108.423 159.903 105.522 155.673 104.462C152.567 103.685 149.307 103.71 146.141 104.018C144.482 104.178 142.703 104.31 141.139 104.926C139.804 105.453 138.716 106.449 137.898 107.618C136.924 109.003 136.262 110.588 135.797 112.213C135.731 112.444 135.669 112.677 135.611 112.911C135.813 114.137 136.243 115.18 137.377 115.951C138.484 116.703 139.805 117.011 141.122 117.121C141.251 117.058 141.376 116.995 141.49 116.929C143.542 115.754 144.986 112.975 147.576 113.351C149.888 113.687 151.409 116.598 152.784 118.305C157.196 118.819 161.604 117.492 165.194 114.967C165.377 114.103 165.387 113.231 165.26 112.37M132.612 109.376C132.965 108.384 133.41 107.424 133.937 106.52C135.679 103.529 138.353 101.145 141.527 99.783C149.037 96.5646 158.754 98.8333 164.819 104.112C166.891 105.916 168.986 108.568 169.619 111.42C169.808 111.457 169.987 111.556 170.134 111.695C174.515 108.934 179.028 106.277 182.559 102.449C185.123 99.6685 186.906 96.3773 187.999 92.7609C188.088 92.4632 188.567 92.5067 188.553 92.8361C188.549 92.9131 188.545 92.99 188.54 93.0671C188.586 92.9254 188.802 92.9983 188.819 93.1358C189.406 97.5291 190.141 102.187 189.464 106.603C189.06 109.238 187.864 111.167 186.265 113.251C184.552 115.483 182.613 117.56 180.63 119.552C179.372 120.816 178.057 122.274 176.517 123.201C174.725 124.278 172.692 125.097 170.78 125.928C168.835 126.776 166.86 127.559 164.848 128.238C160.826 129.601 156.67 130.542 152.44 130.955C149.054 131.284 145.184 131.642 141.939 130.367C139.451 129.39 137.443 127.624 135.851 125.499C134.117 123.185 132.747 120.549 131.989 117.769C131.202 114.881 132.446 109.841 132.612 109.376" fill="black"/>
<path fill-rule="evenodd" clip-rule="evenodd" d="M132.149 94.5164C135.269 96.0204 139.622 93.802 141.72 91.4783C142.484 90.6322 143.073 88.2115 142.779 86.6762C141.984 82.5184 138.994 80.023 135.838 79.1709C131.463 77.9894 127.06 80.9825 127.573 84.5146C128.06 87.8621 128.797 92.7179 132.149 94.5164M153.387 86.5295C153.637 91.0607 157.272 95.0266 161.617 96.2017C168.618 98.1569 172.078 93.2312 173.645 87.9248C173.801 87.3975 174.167 85.7881 173.185 84.4076C169.322 78.9776 159.922 79.9031 155.227 81.3939C153.853 82.7092 153.291 84.6076 153.387 86.5295M128.759 78.7143C128.761 78.717 128.764 78.7193 128.766 78.722C128.782 78.7122 128.798 78.7023 128.814 78.6927C128.796 78.7002 128.777 78.7066 128.759 78.7143M122.902 79.2381C123.308 74.6248 137.771 76.3913 139.462 76.7693C144.076 78.1278 148.062 81.8234 153.221 80.1989C158.567 74.2344 176.569 75.9449 180.343 78.9832C181.057 78.7027 181.926 78.8532 182.846 79.1178C187.573 78.947 209.15 80.5778 204.736 86.6155C204.066 87.0806 203.397 86.6074 203.379 85.6493C180.372 77.3368 182.602 85.1229 179.873 84.2135C179.457 84.3336 179.022 84.4095 178.642 84.4894C176.53 85.1695 175.813 84.9593 175.535 87.3321C173.623 105.655 149.246 99.3307 151.245 84.3017C149.265 84.1927 147.534 83.336 145.44 84.1725C143.987 98.3303 132.604 98.9017 129.178 93.9939C126.595 90.5875 127.62 85.4469 124.069 82.7671C122.667 83.9411 122.577 79.9787 122.902 79.2381" fill="black"/>
</svg>
