<svg width="1042" height="1018" viewBox="0 0 1042 1018" fill="none" xmlns="http://www.w3.org/2000/svg">
<path fill-rule="evenodd" clip-rule="evenodd" d="M621.606 -129.567C754.111 -161.763 898.895 -162.358 1019.51 -98.8093C1149.8 -30.1655 1268.91 84.2092 1300.22 227.972C1330.68 367.862 1243.32 501.346 1177.94 628.746C1122.51 736.767 1062.52 851.001 953.247 904.115C851.34 953.646 733.884 883.734 621.606 899.148C479.797 918.615 348.354 1060.64 216.384 1005.27C86.299 950.684 45.1271 782.674 15.6048 644.865C-11.7355 517.241 -6.41142 378.885 57.8521 265.246C116.411 161.695 245.74 133.79 343.233 65.5134C438.372 -1.11546 508.703 -102.134 621.606 -129.567Z" fill="#EBFFF4"/>
</svg>
