<svg width="1144" height="218" viewBox="0 0 1144 218" fill="none" xmlns="http://www.w3.org/2000/svg">
<path d="M153.216 212L152.282 212.357L152.528 213H153.216V212ZM144.288 188.672L145.222 188.315L144.976 187.672H144.288V188.672ZM73.152 188.672V187.672H72.4479L72.2105 188.335L73.152 188.672ZM64.8 212V213H65.5041L65.7415 212.337L64.8 212ZM0.576 212L-0.331251 211.579L-0.989816 213H0.576V212ZM95.904 6.36799V5.36799H95.2654L94.9967 5.9474L95.904 6.36799ZM128.736 6.36799L129.651 5.96435L129.388 5.36799H128.736V6.36799ZM219.456 212V213H220.99L220.371 211.596L219.456 212ZM108.288 91.04L109.226 90.6938L108.288 88.1512L107.35 90.6938L108.288 91.04ZM88.416 144.896L87.4778 144.55L86.9811 145.896H88.416V144.896ZM128.16 144.896V145.896H129.595L129.098 144.55L128.16 144.896ZM154.15 211.643L145.222 188.315L143.354 189.029L152.282 212.357L154.15 211.643ZM144.288 187.672H73.152V189.672H144.288V187.672ZM72.2105 188.335L63.8585 211.663L65.7415 212.337L74.0935 189.009L72.2105 188.335ZM64.8 211H0.576V213H64.8V211ZM1.48325 212.421L96.8113 6.78857L94.9967 5.9474L-0.331251 211.579L1.48325 212.421ZM95.904 7.36799H128.736V5.36799H95.904V7.36799ZM127.821 6.77163L218.541 212.404L220.371 211.596L129.651 5.96435L127.821 6.77163ZM219.456 211H153.216V213H219.456V211ZM107.35 90.6938L87.4778 144.55L89.3542 145.242L109.226 91.3862L107.35 90.6938ZM88.416 145.896H128.16V143.896H88.416V145.896ZM129.098 144.55L109.226 90.6938L107.35 91.3862L127.222 145.242L129.098 144.55ZM257.954 212H256.954V213H257.954V212ZM257.954 6.36799V5.36799H256.954V6.36799H257.954ZM405.986 9.82399L405.634 10.7604L405.644 10.7638L405.986 9.82399ZM422.402 19.904L421.71 20.626L421.717 20.633L421.724 20.6399L422.402 19.904ZM433.634 36.032L432.713 36.4225L432.72 36.4396L432.728 36.4564L433.634 36.032ZM428.738 85.856L427.935 85.259L427.931 85.2651L427.926 85.2712L428.738 85.856ZM402.53 101.408L402.349 100.424L402.294 102.38L402.53 101.408ZM420.098 108.32L419.601 109.188L419.62 109.199L419.638 109.208L420.098 108.32ZM434.21 119.264L433.455 119.92L433.47 119.938L433.486 119.954L434.21 119.264ZM443.714 133.952L442.789 134.334L443.714 133.952ZM438.818 186.08L437.995 185.512L437.99 185.519L437.985 185.525L438.818 186.08ZM418.082 203.936L417.668 203.026L417.66 203.029L418.082 203.936ZM390.721 210.848L390.645 209.851L390.721 210.848ZM316.993 124.736V123.736H315.993V124.736H316.993ZM316.993 163.328H315.993V164.328H316.993V163.328ZM374.882 162.176L375.139 163.142L374.882 162.176ZM382.658 158.72L383.212 159.552L383.235 159.537L383.258 159.52L382.658 158.72ZM388.418 152.384L389.269 152.908L389.278 152.894L389.286 152.88L388.418 152.384ZM387.842 133.376L387.049 133.986L387.061 134.001L387.073 134.016L387.842 133.376ZM380.642 127.904L380.194 128.798L380.232 128.817L380.27 128.832L380.642 127.904ZM371.714 125.312L371.589 126.304L371.597 126.305L371.714 125.312ZM316.993 52.736V51.736H315.993V52.736H316.993ZM316.993 87.008H315.993V88.008H316.993V87.008ZM381.217 81.248L380.379 80.703L381.217 81.248ZM384.098 63.392L383.117 63.5881L383.126 63.6343L383.14 63.6793L384.098 63.392ZM381.794 58.208L380.993 58.808V58.808L381.794 58.208ZM376.898 54.464L376.383 55.3215L376.432 55.3508L376.484 55.3744L376.898 54.464ZM258.954 212V6.36799H256.954V212H258.954ZM257.954 7.36799H386.114V5.36799H257.954V7.36799ZM386.114 7.36799C393.108 7.36799 399.612 8.50178 405.634 10.7603L406.337 8.88766C400.071 6.5382 393.327 5.36799 386.114 5.36799V7.36799ZM405.644 10.7638C411.857 13.023 417.208 16.3115 421.71 20.626L423.093 19.182C418.379 14.6645 412.786 11.233 406.327 8.8842L405.644 10.7638ZM421.724 20.6399C426.414 24.9542 430.077 30.2103 432.713 36.4225L434.554 35.6414C431.814 29.1817 427.989 23.6858 423.079 19.1681L421.724 20.6399ZM432.728 36.4564C435.537 42.4479 436.954 49.3073 436.954 57.056H438.954C438.954 49.0607 437.49 41.904 434.539 35.6076L432.728 36.4564ZM436.954 57.056C436.954 67.7994 433.942 77.1868 427.935 85.259L429.54 86.453C435.821 78.0132 438.954 68.2006 438.954 57.056H436.954ZM427.926 85.2712C422.148 93.2861 413.657 98.3514 402.349 100.424L402.71 102.392C414.442 100.241 423.423 94.9379 429.549 86.4408L427.926 85.2712ZM402.294 102.38C408.543 103.895 414.311 106.165 419.601 109.188L420.594 107.452C415.132 104.331 409.188 101.993 402.765 100.436L402.294 102.38ZM419.638 109.208C425.102 112.034 429.704 115.606 433.455 119.92L434.964 118.608C431.036 114.09 426.229 110.366 420.557 107.432L419.638 109.208ZM433.486 119.954C437.43 124.086 440.531 128.877 442.789 134.334L444.638 133.57C442.288 127.891 439.053 122.89 434.933 118.574L433.486 119.954ZM442.789 134.334C445.038 139.768 446.17 145.78 446.17 152.384H448.17C448.17 145.548 446.997 139.272 444.638 133.57L442.789 134.334ZM446.17 152.384C446.17 166.671 443.405 177.676 437.995 185.512L439.64 186.648C445.366 178.356 448.17 166.897 448.17 152.384H446.17ZM437.985 185.525C432.708 193.441 425.938 199.266 417.668 203.026L418.495 204.846C427.121 200.926 434.175 194.847 439.65 186.635L437.985 185.525ZM417.66 203.029C409.523 206.814 400.521 209.091 390.645 209.851L390.798 211.845C400.89 211.069 410.128 208.738 418.503 204.843L417.66 203.029ZM390.645 209.851C380.684 210.617 371.205 211 362.21 211V213C371.262 213 380.791 212.615 390.798 211.845L390.645 209.851ZM362.21 211H257.954V213H362.21V211ZM315.993 124.736V163.328H317.993V124.736H315.993ZM316.993 164.328H366.53V162.328H316.993V164.328ZM366.53 164.328C369.313 164.328 372.184 163.93 375.139 163.142L374.624 161.21C371.819 161.958 369.122 162.328 366.53 162.328V164.328ZM375.139 163.142C378.117 162.348 380.81 161.153 383.212 159.552L382.103 157.888C379.897 159.359 377.406 160.468 374.624 161.21L375.139 163.142ZM383.258 159.52C385.664 157.715 387.669 155.509 389.269 152.908L387.566 151.86C386.094 154.251 384.259 156.269 382.057 157.92L383.258 159.52ZM389.286 152.88C390.918 150.024 391.721 146.777 391.721 143.168H389.721C389.721 146.471 388.989 149.368 387.549 151.888L389.286 152.88ZM391.721 143.168C391.721 138.804 390.73 135.281 388.61 132.736L387.073 134.016C388.793 136.079 389.721 139.084 389.721 143.168H391.721ZM388.634 132.766C386.607 130.13 384.062 128.195 381.013 126.976L380.27 128.832C382.981 129.917 385.236 131.63 387.049 133.986L388.634 132.766ZM381.089 127.01C378.288 125.609 375.199 124.715 371.83 124.319L371.597 126.305C374.756 126.677 377.619 127.511 380.194 128.798L381.089 127.01ZM371.838 124.32C368.737 123.932 366.006 123.736 363.65 123.736V125.736C365.901 125.736 368.546 125.924 371.589 126.304L371.838 124.32ZM363.65 123.736H316.993V125.736H363.65V123.736ZM315.993 52.736V87.008H317.993V52.736H315.993ZM316.993 88.008H368.834V86.008H316.993V88.008ZM368.834 88.008C374.833 88.008 379.327 85.9909 382.056 81.793L380.379 80.703C378.116 84.1851 374.354 86.008 368.834 86.008V88.008ZM382.056 81.793C384.653 77.7971 385.962 73.4809 385.962 68.864H383.962C383.962 73.0791 382.774 77.0189 380.379 80.703L382.056 81.793ZM385.962 68.864C385.962 67.0246 385.655 65.1033 385.055 63.1046L383.14 63.6793C383.692 65.5207 383.962 67.2474 383.962 68.864H385.962ZM385.078 63.1959C384.665 61.1324 383.837 59.2659 382.594 57.608L380.993 58.808C382.054 60.2221 382.762 61.8115 383.117 63.5881L385.078 63.1959ZM382.594 57.608C381.322 55.9125 379.544 54.5687 377.311 53.5536L376.484 55.3744C378.475 56.2793 379.961 57.4315 380.993 58.808L382.594 57.608ZM377.412 53.6065C375.281 52.328 372.489 51.736 369.122 51.736V53.736C372.282 53.736 374.674 54.296 376.383 55.3215L377.412 53.6065ZM369.122 51.736H316.993V53.736H369.122V51.736ZM548.057 209.12L547.67 210.042L547.678 210.045L547.686 210.048L548.057 209.12ZM513.785 186.08L513.071 186.78L513.785 186.08ZM491.321 150.944L490.387 151.299L490.391 151.311L491.321 150.944ZM492.185 62.816L491.275 62.4012L491.273 62.4073L492.185 62.816ZM516.089 29.408L516.768 30.1428L516.089 29.408ZM551.225 8.096L551.573 9.03342L551.225 8.096ZM636.761 8.384L636.392 9.31341L636.4 9.31666L636.409 9.31976L636.761 8.384ZM670.745 29.696L670.045 30.4104L670.745 29.696ZM692.633 63.104L691.704 63.4731L691.709 63.4847L692.633 63.104ZM692.345 150.368L691.419 149.99L691.417 149.997L692.345 150.368ZM669.593 185.504L668.879 184.804L668.879 184.804L669.593 185.504ZM635.321 208.832L635.714 209.752L635.72 209.749L635.321 208.832ZM611.417 159.872L610.993 158.966L610.982 158.972L611.417 159.872ZM627.257 148.352L626.521 147.675L627.257 148.352ZM637.625 131.648L638.556 132.015L638.559 132.005L637.625 131.648ZM637.913 88.448L636.962 88.7565L636.965 88.7642L637.913 88.448ZM627.833 70.016L627.058 70.6477L627.065 70.6561L627.072 70.6645L627.833 70.016ZM611.993 57.92L611.569 58.8255L611.579 58.8304L611.993 57.92ZM570.521 58.208L570.969 59.1025L570.98 59.0966L570.521 58.208ZM555.545 70.304L554.77 69.6723L554.767 69.6757L555.545 70.304ZM546.329 130.784L545.375 131.084L545.38 131.1L545.386 131.117L546.329 130.784ZM556.121 148.064L555.358 148.71L556.121 148.064ZM571.385 159.872L570.95 160.772L570.961 160.777L571.385 159.872ZM592.697 216.184C576.488 216.184 561.736 213.515 548.429 208.192L547.686 210.048C561.258 215.477 576.266 218.184 592.697 218.184V216.184ZM548.445 208.198C535.313 202.679 524.002 195.072 514.499 185.38L513.071 186.78C522.769 196.672 534.305 204.425 547.67 210.042L548.445 208.198ZM514.499 185.38C504.999 175.69 497.582 164.093 492.252 150.577L490.391 151.311C495.813 165.059 503.371 176.886 513.071 186.78L514.499 185.38ZM492.256 150.589C487.12 137.083 484.545 122.229 484.545 106.016H482.545C482.545 122.443 485.155 137.541 490.387 151.299L492.256 150.589ZM484.545 106.016C484.545 90.2024 487.403 75.9443 493.098 63.2247L491.273 62.4073C485.448 75.4157 482.545 89.9576 482.545 106.016H484.545ZM493.095 63.2308C498.995 50.2889 506.887 39.2636 516.768 30.1428L515.411 28.6732C505.324 37.9844 497.279 49.2311 491.275 62.4012L493.095 63.2308ZM516.768 30.1428C526.651 21.02 538.249 13.9826 551.573 9.03342L550.877 7.15858C537.322 12.1934 525.496 19.364 515.411 28.6732L516.768 30.1428ZM551.573 9.03342C564.897 4.08463 578.987 1.60799 593.849 1.60799V-0.392006C578.76 -0.392006 564.433 2.12336 550.877 7.15858L551.573 9.03342ZM593.849 1.60799C609.288 1.60799 623.466 4.18079 636.392 9.31341L637.13 7.45458C623.945 2.2192 609.514 -0.392006 593.849 -0.392006V1.60799ZM636.409 9.31976C649.537 14.2666 660.744 21.2986 670.045 30.4104L671.445 28.9816C661.931 19.6614 650.482 12.4854 637.114 7.44823L636.409 9.31976ZM670.045 30.4104C679.347 39.5221 686.568 50.5381 691.704 63.473L693.563 62.735C688.331 49.5579 680.959 38.3018 671.445 28.9816L670.045 30.4104ZM691.709 63.4847C697.029 76.4054 699.697 90.7699 699.697 106.592H701.697C701.697 90.5421 698.99 75.9146 693.558 62.7232L691.709 63.4847ZM699.697 106.592C699.697 122.022 696.936 136.485 691.419 149.99L693.271 150.746C698.891 136.987 701.697 122.266 701.697 106.592H699.697ZM691.417 149.997C686.088 163.318 678.576 174.917 668.879 184.804L670.307 186.204C680.195 176.123 687.85 164.298 693.274 150.739L691.417 149.997ZM668.879 184.804C659.374 194.499 648.059 202.203 634.923 207.915L635.72 209.749C649.08 203.94 660.612 196.093 670.307 186.204L668.879 184.804ZM634.929 207.912C622.007 213.423 607.934 216.184 592.697 216.184V218.184C608.181 218.184 622.524 215.377 635.714 209.752L634.929 207.912ZM591.833 165.192C599.077 165.192 605.755 163.723 611.853 160.772L610.982 158.972C605.175 161.781 598.798 163.192 591.833 163.192V165.192ZM611.842 160.777C618.099 157.845 623.486 153.929 627.993 149.029L626.521 147.675C622.197 152.375 617.024 156.139 610.993 158.967L611.842 160.777ZM627.993 149.029C632.496 144.134 636.017 138.46 638.556 132.015L636.695 131.281C634.242 137.508 630.85 142.97 626.521 147.675L627.993 149.029ZM638.559 132.005C641.1 125.361 642.369 118.424 642.369 111.2H640.369C640.369 118.184 639.143 124.879 636.691 131.291L638.559 132.005ZM642.369 111.2C642.369 102.851 641.204 95.1583 638.862 88.1318L636.965 88.7642C639.23 95.5617 640.369 103.037 640.369 111.2H642.369ZM638.865 88.1395C636.524 80.9229 633.103 74.6606 628.595 69.3675L627.072 70.6645C631.395 75.7394 634.695 81.7651 636.962 88.7565L638.865 88.1395ZM628.609 69.3843C624.283 64.0759 618.878 59.9507 612.407 57.0096L611.579 58.8304C617.781 61.6492 622.935 65.5881 627.058 70.6477L628.609 69.3843ZM612.418 57.0145C606.118 54.0616 598.865 52.6 590.681 52.6V54.6C598.626 54.6 605.58 56.0184 611.569 58.8255L612.418 57.0145ZM590.681 52.6C583.053 52.6 576.172 54.1659 570.063 57.3194L570.98 59.0966C576.774 56.1061 583.334 54.6 590.681 54.6V52.6ZM570.074 57.3136C564.182 60.2594 559.08 64.3828 554.77 69.6723L556.32 70.9357C560.459 65.8572 565.34 61.9166 570.969 59.1024L570.074 57.3136ZM554.767 69.6757C550.649 74.7743 547.521 80.7443 545.375 87.5722L547.283 88.1718C549.361 81.5597 552.377 75.8177 556.323 70.9323L554.767 69.6757ZM545.375 87.5722C543.231 94.3951 542.161 101.601 542.161 109.184H544.161C544.161 101.791 545.204 94.7889 547.283 88.1718L545.375 87.5722ZM542.161 109.184C542.161 116.957 543.23 124.258 545.375 131.084L547.283 130.484C545.204 123.87 544.161 116.771 544.161 109.184H542.161ZM545.386 131.117C547.728 137.752 551.051 143.62 555.358 148.71L556.885 147.418C552.744 142.524 549.538 136.872 547.272 130.451L545.386 131.117ZM555.358 148.71C559.673 153.81 564.873 157.832 570.95 160.772L571.821 158.972C565.993 156.152 561.017 152.302 556.885 147.418L555.358 148.71ZM570.961 160.777C577.251 163.726 584.214 165.192 591.833 165.192V163.192C584.477 163.192 577.808 161.778 571.81 158.967L570.961 160.777ZM873.661 6.36799V5.36799H872.661V6.36799H873.661ZM930.398 6.36799H931.398V5.36799H930.398V6.36799ZM906.206 196.736L906.856 197.496L906.856 197.495L906.206 196.736ZM767.102 194.72L766.417 195.449L767.102 194.72ZM743.198 6.36799V5.36799H742.198V6.36799H743.198ZM802.813 6.36799H803.813V5.36799H802.813V6.36799ZM804.542 140L805.516 139.775L804.542 140ZM810.302 152.96L811.107 152.367L810.302 152.96ZM821.245 161.6L821.662 160.691L821.245 161.6ZM856.381 162.176L856.733 163.112L856.75 163.106L856.766 163.099L856.381 162.176ZM867.037 154.112L866.232 153.519L866.227 153.527L867.037 154.112ZM872.221 141.152L871.24 140.963L871.236 140.981L871.233 141L872.221 141.152ZM873.661 7.36799H930.398V5.36799H873.661V7.36799ZM929.398 6.36799V133.952H931.398V6.36799H929.398ZM929.398 133.952C929.398 161.791 921.395 182.399 905.555 195.977L906.856 197.495C923.272 183.425 931.398 162.177 931.398 133.952H929.398ZM905.555 195.976C889.871 209.393 866.529 216.184 835.357 216.184V218.184C866.778 218.184 890.668 211.343 906.856 197.496L905.555 195.976ZM835.357 216.184C805.953 216.184 783.48 208.739 767.786 193.991L766.417 195.449C782.595 210.653 805.626 218.184 835.357 218.184V216.184ZM767.786 193.991C752.104 179.254 744.198 158.046 744.198 130.208H742.198C742.198 158.434 750.227 180.234 766.417 195.449L767.786 193.991ZM744.198 130.208V6.36799H742.198V130.208H744.198ZM743.198 7.36799H802.813V5.36799H743.198V7.36799ZM801.813 6.36799V123.584H803.813V6.36799H801.813ZM801.813 123.584C801.813 129.6 802.396 135.148 803.567 140.225L805.516 139.775C804.383 134.868 803.813 129.472 803.813 123.584H801.813ZM803.567 140.225C804.746 145.333 806.718 149.782 809.496 153.553L811.107 152.367C808.509 148.842 806.641 144.651 805.516 139.775L803.567 140.225ZM809.496 153.553C812.297 157.353 816.085 160.335 820.829 162.509L821.662 160.691C817.19 158.641 813.682 155.863 811.107 152.367L809.496 153.553ZM820.829 162.509C825.603 164.697 831.418 165.768 838.237 165.768V163.768C831.617 163.768 826.104 162.727 821.662 160.691L820.829 162.509ZM838.237 165.768C845.789 165.768 851.97 164.898 856.733 163.112L856.03 161.24C851.577 162.91 845.662 163.768 838.237 163.768V165.768ZM856.766 163.099C861.515 161.12 865.227 158.327 867.848 154.697L866.227 153.527C863.856 156.809 860.464 159.392 855.997 161.253L856.766 163.099ZM867.843 154.705C870.637 150.913 872.42 146.437 873.21 141.304L871.233 141C870.487 145.851 868.814 150.015 866.232 153.519L867.843 154.705ZM873.203 141.341C874.178 136.274 874.661 130.545 874.661 124.16H872.661C872.661 130.447 872.185 136.046 871.24 140.963L873.203 141.341ZM874.661 124.16V6.36799H872.661V124.16H874.661ZM1026.38 212H1025.38V213H1026.38V212ZM1026.38 59.36H1027.38V58.36H1026.38V59.36ZM969.064 59.36H968.064V60.36H969.064V59.36ZM969.064 6.36799V5.36799H968.064V6.36799H969.064ZM1143.02 6.36799H1144.02V5.36799H1143.02V6.36799ZM1143.02 59.36V60.36H1144.02V59.36H1143.02ZM1085.7 59.36V58.36H1084.7V59.36H1085.7ZM1085.7 212V213H1086.7V212H1085.7ZM1027.38 212V59.36H1025.38V212H1027.38ZM1026.38 58.36H969.064V60.36H1026.38V58.36ZM970.064 59.36V6.36799H968.064V59.36H970.064ZM969.064 7.36799H1143.02V5.36799H969.064V7.36799ZM1142.02 6.36799V59.36H1144.02V6.36799H1142.02ZM1143.02 58.36H1085.7V60.36H1143.02V58.36ZM1084.7 59.36V212H1086.7V59.36H1084.7ZM1085.7 211H1026.38V213H1085.7V211Z" fill="black" fill-opacity="0.11"/>
</svg>
