<svg width="1565" height="218" viewBox="0 0 1565 218" fill="none" xmlns="http://www.w3.org/2000/svg">
<path d="M160.48 94.208L159.523 94.498L159.738 95.208H160.48V94.208ZM141.472 64.544L140.827 65.308L140.836 65.3157L140.845 65.3232L141.472 64.544ZM73.504 67.712L72.7969 67.0048L72.7896 67.0122L73.504 67.712ZM63.136 130.496L62.1847 130.805L62.1873 130.812L63.136 130.496ZM73.216 148.352L73.965 147.689L73.216 148.352ZM89.056 160.16L88.6316 161.065L88.6484 161.073L88.6655 161.081L89.056 160.16ZM126.784 161.312L126.448 160.37L126.784 161.312ZM141.76 153.248L142.36 154.048L142.37 154.04L142.381 154.032L141.76 153.248ZM153.856 140.576L154.668 141.16L154.673 141.153L154.678 141.145L153.856 140.576ZM161.344 123.872V122.872H160.563L160.374 123.629L161.344 123.872ZM216.352 123.872L217.348 123.959L217.443 122.872H216.352V123.872ZM205.12 161.024L204.244 160.542L204.241 160.547L205.12 161.024ZM181.216 190.688L181.868 191.446L181.869 191.445L181.216 190.688ZM148.384 210.272L148.74 211.207L148.748 211.203L148.384 210.272ZM65.152 208.832L64.7628 209.753L64.7739 209.758L65.152 208.832ZM30.304 185.504L29.5831 186.197L29.5899 186.204L30.304 185.504ZM7.84 150.368L6.90693 150.728L6.91152 150.739L7.84 150.368ZM7.84 65.696L6.91726 65.3104L6.91248 65.3222L7.84 65.696ZM30.304 32L29.6039 31.2859L29.5969 31.2929L30.304 32ZM65.44 9.24799L65.8182 10.1738L65.8292 10.1691L65.44 9.24799ZM149.824 6.944L149.499 7.88969L149.824 6.944ZM182.368 25.376L181.717 26.1353L181.725 26.1417L182.368 25.376ZM205.984 55.04L205.098 55.5046L205.102 55.5106L205.984 55.04ZM217.504 94.208V95.208H218.615L218.499 94.1033L217.504 94.208ZM161.437 93.918C157.549 81.0866 151.113 71.015 142.099 63.7648L140.845 65.3232C149.495 72.2809 155.731 81.9854 159.523 94.498L161.437 93.918ZM142.117 63.78C133.29 56.3258 122.883 52.6 110.944 52.6V54.6C122.429 54.6 132.374 58.1702 140.827 65.308L142.117 63.78ZM110.944 52.6C95.1751 52.6 82.424 57.3777 72.7969 67.0049L74.2111 68.4191C83.4 59.2303 95.6089 54.6 110.944 54.6V52.6ZM72.7896 67.0122C63.3428 76.6559 58.68 90.0876 58.68 107.168H60.68C60.68 90.4564 65.2332 77.5841 74.2184 68.4118L72.7896 67.0122ZM58.68 107.168C58.68 115.707 59.8445 123.589 62.1848 130.805L64.0872 130.187C61.8195 123.195 60.68 115.525 60.68 107.168H58.68ZM62.1873 130.812C64.5299 137.84 67.9538 143.913 72.467 149.015L73.965 147.689C69.6462 142.807 66.3501 136.976 64.0847 130.18L62.1873 130.812ZM72.467 149.015C76.9751 154.111 82.3662 158.129 88.6316 161.065L89.4804 159.255C83.4578 156.431 78.2889 152.577 73.965 147.689L72.467 149.015ZM88.6655 161.081C95.1443 163.829 102.481 165.192 110.656 165.192V163.192C102.703 163.192 95.6397 161.867 89.4466 159.239L88.6655 161.081ZM110.656 165.192C116.154 165.192 121.643 164.21 127.12 162.254L126.448 160.37C121.173 162.254 115.91 163.192 110.656 163.192V165.192ZM127.12 162.254C132.592 160.3 137.672 157.564 142.36 154.048L141.16 152.448C136.632 155.844 131.728 158.484 126.448 160.37L127.12 162.254ZM142.381 154.032C147.062 150.326 151.158 146.035 154.668 141.16L153.044 139.992C149.642 144.717 145.674 148.874 141.139 152.464L142.381 154.032ZM154.678 141.145C158.206 136.05 160.75 130.37 162.314 124.115L160.374 123.629C158.866 129.662 156.418 135.118 153.034 140.007L154.678 141.145ZM161.344 124.872H216.352V122.872H161.344V124.872ZM215.356 123.785C214.216 136.896 210.512 149.145 204.244 160.542L205.996 161.506C212.4 149.863 216.184 137.344 217.348 123.959L215.356 123.785ZM204.241 160.547C198.155 171.768 190.263 181.562 180.563 189.931L181.869 191.445C191.753 182.918 199.797 172.936 205.999 161.501L204.241 160.547ZM180.564 189.93C171.053 198.109 160.207 204.58 148.02 209.341L148.748 211.203C161.137 206.364 172.179 199.779 181.868 191.446L180.564 189.93ZM148.028 209.338C136.047 213.902 123.591 216.184 110.656 216.184V218.184C123.833 218.184 136.529 215.858 148.74 211.206L148.028 209.338ZM110.656 216.184C94.0643 216.184 79.027 213.419 65.5301 207.906L64.7739 209.758C78.541 215.381 93.8397 218.184 110.656 218.184V216.184ZM65.5412 207.911C52.0213 202.198 40.5183 194.494 31.0181 184.804L29.5899 186.204C39.2897 196.098 51.0187 203.946 64.7628 209.753L65.5412 207.911ZM31.0248 184.811C21.5181 174.924 14.0988 163.322 8.76848 149.997L6.91152 150.739C12.3332 164.294 19.8899 176.116 29.5832 186.197L31.0248 184.811ZM8.773 150.008C3.6367 136.692 1.064 122.319 1.064 106.88H-0.936C-0.936 122.545 1.6753 137.164 6.907 150.728L8.773 150.008ZM1.064 106.88C1.064 92.4093 3.63386 78.8089 8.76752 66.0698L6.91248 65.3222C1.67814 78.3111 -0.936 92.1667 -0.936 106.88H1.064ZM8.76267 66.0816C14.0898 53.3345 21.5057 42.2125 31.0111 32.7071L29.5969 31.2929C19.9023 40.9875 12.3422 52.3295 6.91733 65.3104L8.76267 66.0816ZM31.0041 32.7141C40.6968 23.2114 52.2972 15.6964 65.8181 10.1737L65.0619 8.32223C51.3188 13.9356 39.4952 21.5886 29.6039 31.2859L31.0041 32.7141ZM65.8292 10.1691C79.3245 4.46688 94.2622 1.60799 110.656 1.60799V-0.392006C94.0258 -0.392006 78.8195 2.50909 65.0508 8.32684L65.8292 10.1691ZM110.656 1.60799C124.376 1.60799 137.322 3.70388 149.499 7.88969L150.149 5.99831C137.75 1.73611 124.584 -0.392006 110.656 -0.392006V1.60799ZM149.499 7.88969C161.673 12.0747 172.41 18.1573 181.717 26.1353L183.019 24.6167C173.51 16.4666 162.551 10.2613 150.149 5.99831L149.499 7.88969ZM181.725 26.1417C191.22 34.1175 199.012 43.9013 205.098 55.5045L206.87 54.5754C200.668 42.7547 192.716 32.7625 183.011 24.6103L181.725 26.1417ZM205.102 55.5106C211.178 66.9037 214.985 79.8329 216.51 94.3127L218.499 94.1033C216.951 79.3991 213.078 66.2162 206.866 54.5694L205.102 55.5106ZM217.504 93.208H160.48V95.208H217.504V93.208ZM318.207 209.12L317.82 210.042L317.828 210.045L317.836 210.048L318.207 209.12ZM283.935 186.08L283.221 186.78L283.935 186.08ZM261.471 150.944L260.536 151.299L260.541 151.311L261.471 150.944ZM262.335 62.816L261.425 62.4012L261.423 62.4073L262.335 62.816ZM286.239 29.408L286.918 30.1428L286.239 29.408ZM321.375 8.096L321.723 9.03342L321.375 8.096ZM406.911 8.384L406.542 9.31341L406.55 9.31666L406.559 9.31976L406.911 8.384ZM440.895 29.696L440.195 30.4104L440.895 29.696ZM462.783 63.104L461.854 63.4731L461.859 63.4847L462.783 63.104ZM462.495 150.368L461.569 149.99L461.567 149.997L462.495 150.368ZM439.743 185.504L439.029 184.804L439.029 184.804L439.743 185.504ZM405.471 208.832L405.864 209.752L405.87 209.749L405.471 208.832ZM381.567 159.872L381.143 158.966L381.132 158.972L381.567 159.872ZM397.407 148.352L396.671 147.675L397.407 148.352ZM407.775 131.648L408.706 132.015L408.709 132.005L407.775 131.648ZM408.063 88.448L407.112 88.7565L407.115 88.7642L408.063 88.448ZM397.983 70.016L397.208 70.6477L397.215 70.6561L397.222 70.6645L397.983 70.016ZM382.143 57.92L381.719 58.8255L381.729 58.8304L382.143 57.92ZM340.671 58.208L341.118 59.1025L341.13 59.0966L340.671 58.208ZM325.695 70.304L324.92 69.6723L324.917 69.6757L325.695 70.304ZM316.479 130.784L315.525 131.084L315.53 131.1L315.536 131.117L316.479 130.784ZM326.271 148.064L325.508 148.71L326.271 148.064ZM341.535 159.872L341.1 160.772L341.111 160.777L341.535 159.872ZM362.847 216.184C346.638 216.184 331.886 213.515 318.579 208.192L317.836 210.048C331.408 215.477 346.416 218.184 362.847 218.184V216.184ZM318.595 208.198C305.463 202.679 294.152 195.072 284.649 185.38L283.221 186.78C292.919 196.672 304.455 204.425 317.82 210.042L318.595 208.198ZM284.649 185.38C275.149 175.69 267.732 164.093 262.402 150.577L260.541 151.311C265.963 165.059 273.521 176.886 283.221 186.78L284.649 185.38ZM262.406 150.589C257.27 137.083 254.695 122.229 254.695 106.016H252.695C252.695 122.443 255.305 137.541 260.537 151.299L262.406 150.589ZM254.695 106.016C254.695 90.2024 257.553 75.9443 263.248 63.2247L261.423 62.4073C255.598 75.4157 252.695 89.9576 252.695 106.016H254.695ZM263.245 63.2308C269.145 50.2889 277.037 39.2636 286.918 30.1428L285.561 28.6732C275.474 37.9844 267.429 49.2311 261.425 62.4012L263.245 63.2308ZM286.918 30.1428C296.801 21.02 308.399 13.9826 321.723 9.03342L321.027 7.15858C307.472 12.1934 295.646 19.364 285.561 28.6732L286.918 30.1428ZM321.723 9.03342C335.047 4.08463 349.137 1.60799 363.999 1.60799V-0.392006C348.91 -0.392006 334.583 2.12336 321.027 7.15858L321.723 9.03342ZM363.999 1.60799C379.438 1.60799 393.616 4.18079 406.542 9.31341L407.28 7.45458C394.095 2.2192 379.664 -0.392006 363.999 -0.392006V1.60799ZM406.559 9.31976C419.687 14.2666 430.894 21.2986 440.195 30.4104L441.595 28.9816C432.081 19.6614 420.632 12.4854 407.264 7.44823L406.559 9.31976ZM440.195 30.4104C449.497 39.5221 456.718 50.5381 461.854 63.473L463.713 62.735C458.481 49.5579 451.109 38.3018 441.595 28.9816L440.195 30.4104ZM461.859 63.4847C467.179 76.4054 469.847 90.7699 469.847 106.592H471.847C471.847 90.5421 469.14 75.9146 463.708 62.7232L461.859 63.4847ZM469.847 106.592C469.847 122.022 467.086 136.485 461.57 149.99L463.421 150.746C469.041 136.987 471.847 122.266 471.847 106.592H469.847ZM461.567 149.997C456.238 163.318 448.726 174.917 439.029 184.804L440.457 186.204C450.345 176.123 458 164.298 463.424 150.739L461.567 149.997ZM439.029 184.804C429.524 194.499 418.209 202.203 405.073 207.915L405.87 209.749C419.23 203.94 430.762 196.093 440.457 186.204L439.029 184.804ZM405.079 207.912C392.157 213.423 378.084 216.184 362.847 216.184V218.184C378.331 218.184 392.674 215.377 405.864 209.752L405.079 207.912ZM361.983 165.192C369.227 165.192 375.905 163.723 382.003 160.772L381.132 158.972C375.325 161.781 368.948 163.192 361.983 163.192V165.192ZM381.992 160.777C388.249 157.845 393.636 153.929 398.143 149.029L396.671 147.675C392.347 152.375 387.174 156.139 381.143 158.967L381.992 160.777ZM398.143 149.029C402.646 144.134 406.167 138.46 408.706 132.015L406.845 131.281C404.392 137.508 401 142.97 396.671 147.675L398.143 149.029ZM408.709 132.005C411.25 125.361 412.519 118.424 412.519 111.2H410.519C410.519 118.184 409.293 124.879 406.841 131.291L408.709 132.005ZM412.519 111.2C412.519 102.851 411.354 95.1583 409.012 88.1318L407.115 88.7642C409.38 95.5617 410.519 103.037 410.519 111.2H412.519ZM409.014 88.1395C406.674 80.9229 403.253 74.6606 398.745 69.3675L397.222 70.6645C401.545 75.7394 404.845 81.7651 407.112 88.7565L409.014 88.1395ZM398.759 69.3843C394.433 64.0759 389.028 59.9507 382.557 57.0096L381.729 58.8304C387.931 61.6492 393.085 65.5881 397.208 70.6477L398.759 69.3843ZM382.568 57.0145C376.268 54.0616 369.015 52.6 360.831 52.6V54.6C368.776 54.6 375.73 56.0184 381.719 58.8255L382.568 57.0145ZM360.831 52.6C353.203 52.6 346.322 54.1659 340.213 57.3194L341.13 59.0966C346.924 56.1061 353.484 54.6 360.831 54.6V52.6ZM340.224 57.3136C334.332 60.2594 329.23 64.3828 324.92 69.6723L326.47 70.9357C330.609 65.8572 335.49 61.9166 341.118 59.1024L340.224 57.3136ZM324.917 69.6757C320.799 74.7743 317.671 80.7443 315.525 87.5722L317.433 88.1718C319.511 81.5597 322.527 75.8177 326.473 70.9323L324.917 69.6757ZM315.525 87.5722C313.381 94.3951 312.311 101.601 312.311 109.184H314.311C314.311 101.791 315.354 94.7889 317.433 88.1718L315.525 87.5722ZM312.311 109.184C312.311 116.957 313.38 124.258 315.525 131.084L317.433 130.484C315.354 123.87 314.311 116.771 314.311 109.184H312.311ZM315.536 131.117C317.878 137.752 321.201 143.62 325.508 148.71L327.035 147.418C322.894 142.524 319.688 136.872 317.422 130.451L315.536 131.117ZM325.508 148.71C329.823 153.81 335.023 157.832 341.1 160.772L341.971 158.972C336.143 156.152 331.167 152.302 327.035 147.418L325.508 148.71ZM341.111 160.777C347.401 163.726 354.364 165.192 361.983 165.192V163.192C354.627 163.192 347.958 161.778 341.96 158.967L341.111 160.777ZM648.708 212L647.859 212.529L648.153 213H648.708V212ZM567.492 81.824L568.34 81.2947L566.492 78.332V81.824H567.492ZM567.492 212V213H568.492V212H567.492ZM515.651 212H514.651V213H515.651V212ZM515.651 6.36799V5.36799H514.651V6.36799H515.651ZM592.26 6.36799L593.127 5.87016L592.839 5.36799H592.26V6.36799ZM646.979 101.696L646.112 102.194L647.979 105.447V101.696H646.979ZM646.979 6.36799V5.36799H645.979V6.36799H646.979ZM700.26 6.36799H701.26V5.36799H700.26V6.36799ZM700.26 212V213H701.26V212H700.26ZM649.556 211.471L568.34 81.2947L566.643 82.3533L647.859 212.529L649.556 211.471ZM566.492 81.824V212H568.492V81.824H566.492ZM567.492 211H515.651V213H567.492V211ZM516.651 212V6.36799H514.651V212H516.651ZM515.651 7.36799H592.26V5.36799H515.651V7.36799ZM591.392 6.86581L646.112 102.194L647.847 101.198L593.127 5.87016L591.392 6.86581ZM647.979 101.696V6.36799H645.979V101.696H647.979ZM646.979 7.36799H700.26V5.36799H646.979V7.36799ZM699.26 6.36799V212H701.26V6.36799H699.26ZM700.26 211H648.708V213H700.26V211ZM798.495 212H797.495V213H798.495V212ZM798.495 59.36H799.495V58.36H798.495V59.36ZM741.182 59.36H740.182V60.36H741.182V59.36ZM741.182 6.36799V5.36799H740.182V6.36799H741.182ZM915.135 6.36799H916.135V5.36799H915.135V6.36799ZM915.135 59.36V60.36H916.135V59.36H915.135ZM857.823 59.36V58.36H856.823V59.36H857.823ZM857.823 212V213H858.823V212H857.823ZM799.495 212V59.36H797.495V212H799.495ZM798.495 58.36H741.182V60.36H798.495V58.36ZM742.182 59.36V6.36799H740.182V59.36H742.182ZM741.182 7.36799H915.135V5.36799H741.182V7.36799ZM914.135 6.36799V59.36H916.135V6.36799H914.135ZM915.135 58.36H857.823V60.36H915.135V58.36ZM856.823 59.36V212H858.823V59.36H856.823ZM857.823 211H798.495V213H857.823V211ZM1066.08 212L1065.15 212.357L1065.4 213H1066.08V212ZM1057.16 188.672L1058.09 188.315L1057.84 187.672H1057.16V188.672ZM986.021 188.672V187.672H985.317L985.079 188.335L986.021 188.672ZM977.669 212V213H978.373L978.61 212.337L977.669 212ZM913.445 212L912.538 211.579L911.879 213H913.445V212ZM1008.77 6.36799V5.36799H1008.13L1007.87 5.9474L1008.77 6.36799ZM1041.6 6.36799L1042.52 5.96435L1042.26 5.36799H1041.6V6.36799ZM1132.32 212V213H1133.86L1133.24 211.596L1132.32 212ZM1021.16 91.04L1022.09 90.6938L1021.16 88.1512L1020.22 90.6938L1021.16 91.04ZM1001.28 144.896L1000.35 144.55L999.85 145.896H1001.28V144.896ZM1041.03 144.896V145.896H1042.46L1041.97 144.55L1041.03 144.896ZM1067.02 211.643L1058.09 188.315L1056.22 189.029L1065.15 212.357L1067.02 211.643ZM1057.16 187.672H986.021V189.672H1057.16V187.672ZM985.079 188.335L976.727 211.663L978.61 212.337L986.962 189.009L985.079 188.335ZM977.669 211H913.445V213H977.669V211ZM914.352 212.421L1009.68 6.78857L1007.87 5.9474L912.538 211.579L914.352 212.421ZM1008.77 7.36799H1041.6V5.36799H1008.77V7.36799ZM1040.69 6.77163L1131.41 212.404L1133.24 211.596L1042.52 5.96435L1040.69 6.77163ZM1132.32 211H1066.08V213H1132.32V211ZM1020.22 90.6938L1000.35 144.55L1002.22 145.242L1022.09 91.3862L1020.22 90.6938ZM1001.28 145.896H1041.03V143.896H1001.28V145.896ZM1041.97 144.55L1022.09 90.6938L1020.22 91.3862L1040.09 145.242L1041.97 144.55ZM1304.6 94.208L1303.65 94.498L1303.86 95.208H1304.6V94.208ZM1285.6 64.544L1284.95 65.308L1284.96 65.3157L1284.97 65.3232L1285.6 64.544ZM1217.63 67.712L1216.92 67.0048L1216.91 67.0122L1217.63 67.712ZM1207.26 130.496L1206.31 130.805L1206.31 130.812L1207.26 130.496ZM1217.34 148.352L1218.09 147.689L1217.34 148.352ZM1233.18 160.16L1232.76 161.065L1232.77 161.073L1232.79 161.081L1233.18 160.16ZM1270.91 161.312L1270.57 160.37L1270.91 161.312ZM1285.89 153.248L1286.48 154.048L1286.5 154.04L1286.51 154.032L1285.89 153.248ZM1297.98 140.576L1298.79 141.16L1298.8 141.153L1298.8 141.145L1297.98 140.576ZM1305.47 123.872V122.872H1304.69L1304.5 123.629L1305.47 123.872ZM1360.48 123.872L1361.47 123.959L1361.57 122.872H1360.48V123.872ZM1349.24 161.024L1348.37 160.542L1348.37 160.547L1349.24 161.024ZM1325.34 190.688L1325.99 191.446L1325.99 191.445L1325.34 190.688ZM1292.51 210.272L1292.86 211.207L1292.87 211.203L1292.51 210.272ZM1209.28 208.832L1208.89 209.753L1208.9 209.758L1209.28 208.832ZM1174.43 185.504L1173.71 186.197L1173.71 186.204L1174.43 185.504ZM1151.96 150.368L1151.03 150.728L1151.04 150.739L1151.96 150.368ZM1151.96 65.696L1151.04 65.3104L1151.04 65.3222L1151.96 65.696ZM1174.43 32L1173.73 31.2859L1173.72 31.2929L1174.43 32ZM1209.57 9.24799L1209.94 10.1738L1209.95 10.1691L1209.57 9.24799ZM1293.95 6.944L1293.62 7.88969L1293.95 6.944ZM1326.49 25.376L1325.84 26.1353L1325.85 26.1417L1326.49 25.376ZM1350.11 55.04L1349.22 55.5046L1349.23 55.5106L1350.11 55.04ZM1361.63 94.208V95.208H1362.74L1362.62 94.1033L1361.63 94.208ZM1305.56 93.918C1301.67 81.0866 1295.24 71.015 1286.22 63.7648L1284.97 65.3232C1293.62 72.2809 1299.86 81.9854 1303.65 94.498L1305.56 93.918ZM1286.24 63.78C1277.41 56.3258 1267.01 52.6 1255.07 52.6V54.6C1266.55 54.6 1276.5 58.1702 1284.95 65.308L1286.24 63.78ZM1255.07 52.6C1239.3 52.6 1226.55 57.3777 1216.92 67.0049L1218.34 68.4191C1227.52 59.2303 1239.73 54.6 1255.07 54.6V52.6ZM1216.91 67.0122C1207.47 76.6559 1202.81 90.0876 1202.81 107.168H1204.81C1204.81 90.4564 1209.36 77.5841 1218.34 68.4118L1216.91 67.0122ZM1202.81 107.168C1202.81 115.707 1203.97 123.589 1206.31 130.805L1208.21 130.187C1205.94 123.195 1204.81 115.525 1204.81 107.168H1202.81ZM1206.31 130.812C1208.65 137.84 1212.08 143.913 1216.59 149.015L1218.09 147.689C1213.77 142.807 1210.48 136.976 1208.21 130.18L1206.31 130.812ZM1216.59 149.015C1221.1 154.111 1226.49 158.129 1232.76 161.065L1233.61 159.255C1227.58 156.431 1222.41 152.577 1218.09 147.689L1216.59 149.015ZM1232.79 161.081C1239.27 163.829 1246.61 165.192 1254.78 165.192V163.192C1246.83 163.192 1239.76 161.867 1233.57 159.239L1232.79 161.081ZM1254.78 165.192C1260.28 165.192 1265.77 164.21 1271.25 162.254L1270.57 160.37C1265.3 162.254 1260.04 163.192 1254.78 163.192V165.192ZM1271.25 162.254C1276.72 160.3 1281.8 157.564 1286.48 154.048L1285.29 152.448C1280.76 155.844 1275.85 158.484 1270.57 160.37L1271.25 162.254ZM1286.51 154.032C1291.19 150.326 1295.28 146.035 1298.79 141.16L1297.17 139.992C1293.77 144.717 1289.8 148.874 1285.26 152.464L1286.51 154.032ZM1298.8 141.145C1302.33 136.05 1304.88 130.37 1306.44 124.115L1304.5 123.629C1302.99 129.662 1300.54 135.118 1297.16 140.007L1298.8 141.145ZM1305.47 124.872H1360.48V122.872H1305.47V124.872ZM1359.48 123.785C1358.34 136.896 1354.64 149.145 1348.37 160.542L1350.12 161.506C1356.53 149.863 1360.31 137.344 1361.47 123.959L1359.48 123.785ZM1348.37 160.547C1342.28 171.768 1334.39 181.562 1324.69 189.931L1325.99 191.445C1335.88 182.918 1343.92 172.936 1350.12 161.501L1348.37 160.547ZM1324.69 189.93C1315.18 198.109 1304.33 204.58 1292.15 209.341L1292.87 211.203C1305.26 206.364 1316.3 199.779 1325.99 191.446L1324.69 189.93ZM1292.15 209.338C1280.17 213.902 1267.72 216.184 1254.78 216.184V218.184C1267.96 218.184 1280.65 215.858 1292.86 211.206L1292.15 209.338ZM1254.78 216.184C1238.19 216.184 1223.15 213.419 1209.66 207.906L1208.9 209.758C1222.67 215.381 1237.96 218.184 1254.78 218.184V216.184ZM1209.67 207.911C1196.15 202.198 1184.64 194.494 1175.14 184.804L1173.71 186.204C1183.41 196.098 1195.14 203.946 1208.89 209.753L1209.67 207.911ZM1175.15 184.811C1165.64 174.924 1158.22 163.322 1152.89 149.997L1151.04 150.739C1156.46 164.294 1164.01 176.116 1173.71 186.197L1175.15 184.811ZM1152.9 150.008C1147.76 136.692 1145.19 122.319 1145.19 106.88H1143.19C1143.19 122.545 1145.8 137.164 1151.03 150.728L1152.9 150.008ZM1145.19 106.88C1145.19 92.4093 1147.76 78.8089 1152.89 66.0698L1151.04 65.3222C1145.8 78.3111 1143.19 92.1667 1143.19 106.88H1145.19ZM1152.89 66.0816C1158.21 53.3345 1165.63 42.2125 1175.14 32.7071L1173.72 31.2929C1164.03 40.9875 1156.47 52.3295 1151.04 65.3104L1152.89 66.0816ZM1175.13 32.7141C1184.82 23.2114 1196.42 15.6964 1209.94 10.1737L1209.19 8.32223C1195.44 13.9356 1183.62 21.5886 1173.73 31.2859L1175.13 32.7141ZM1209.95 10.1691C1223.45 4.46688 1238.39 1.60799 1254.78 1.60799V-0.392006C1238.15 -0.392006 1222.94 2.50909 1209.18 8.32684L1209.95 10.1691ZM1254.78 1.60799C1268.5 1.60799 1281.45 3.70388 1293.62 7.88969L1294.27 5.99831C1281.88 1.73611 1268.71 -0.392006 1254.78 -0.392006V1.60799ZM1293.62 7.88969C1305.8 12.0747 1316.53 18.1573 1325.84 26.1353L1327.14 24.6167C1317.64 16.4666 1306.68 10.2613 1294.27 5.99831L1293.62 7.88969ZM1325.85 26.1417C1335.34 34.1175 1343.14 43.9013 1349.22 55.5045L1350.99 54.5754C1344.79 42.7547 1336.84 32.7625 1327.14 24.6103L1325.85 26.1417ZM1349.23 55.5106C1355.3 66.9037 1359.11 79.8329 1360.63 94.3127L1362.62 94.1033C1361.08 79.3991 1357.2 66.2162 1350.99 54.5694L1349.23 55.5106ZM1361.63 93.208H1304.6V95.208H1361.63V93.208ZM1447.45 212H1446.45V213H1447.45V212ZM1447.45 59.36H1448.45V58.36H1447.45V59.36ZM1390.14 59.36H1389.14V60.36H1390.14V59.36ZM1390.14 6.36799V5.36799H1389.14V6.36799H1390.14ZM1564.09 6.36799H1565.09V5.36799H1564.09V6.36799ZM1564.09 59.36V60.36H1565.09V59.36H1564.09ZM1506.78 59.36V58.36H1505.78V59.36H1506.78ZM1506.78 212V213H1507.78V212H1506.78ZM1448.45 212V59.36H1446.45V212H1448.45ZM1447.45 58.36H1390.14V60.36H1447.45V58.36ZM1391.14 59.36V6.36799H1389.14V59.36H1391.14ZM1390.14 7.36799H1564.09V5.36799H1390.14V7.36799ZM1563.09 6.36799V59.36H1565.09V6.36799H1563.09ZM1564.09 58.36H1506.78V60.36H1564.09V58.36ZM1505.78 59.36V212H1507.78V59.36H1505.78ZM1506.78 211H1447.45V213H1506.78V211Z" fill="black" fill-opacity="0.11"/>
</svg>
