<svg width="933" height="218" viewBox="0 0 933 218" fill="none" xmlns="http://www.w3.org/2000/svg">
<path id="HOME" d="M120.512 212H119.512V213H120.512V212ZM120.512 139.424H121.512V138.424H120.512V139.424ZM59.456 139.424V138.424H58.456V139.424H59.456ZM59.456 212V213H60.456V212H59.456ZM0.416 212H-0.583999V213H0.416V212ZM0.416 6.36799V5.36799H-0.583999V6.36799H0.416ZM59.456 6.36799H60.456V5.36799H59.456V6.36799ZM59.456 86.144H58.456V87.144H59.456V86.144ZM120.512 86.144V87.144H121.512V86.144H120.512ZM120.512 6.36799V5.36799H119.512V6.36799H120.512ZM179.264 6.36799H180.264V5.36799H179.264V6.36799ZM179.264 212V213H180.264V212H179.264ZM121.512 212V139.424H119.512V212H121.512ZM120.512 138.424H59.456V140.424H120.512V138.424ZM58.456 139.424V212H60.456V139.424H58.456ZM59.456 211H0.416V213H59.456V211ZM1.416 212V6.36799H-0.583999V212H1.416ZM0.416 7.36799H59.456V5.36799H0.416V7.36799ZM58.456 6.36799V86.144H60.456V6.36799H58.456ZM59.456 87.144H120.512V85.144H59.456V87.144ZM121.512 86.144V6.36799H119.512V86.144H121.512ZM120.512 7.36799H179.264V5.36799H120.512V7.36799ZM178.264 6.36799V212H180.264V6.36799H178.264ZM179.264 211H120.512V213H179.264V211ZM289.957 209.12L289.57 210.042L289.578 210.045L289.586 210.048L289.957 209.12ZM255.685 186.08L254.971 186.78L255.685 186.08ZM233.221 150.944L232.286 151.299L232.291 151.311L233.221 150.944ZM234.085 62.816L233.175 62.4012L233.173 62.4073L234.085 62.816ZM257.989 29.408L258.668 30.1428L257.989 29.408ZM293.125 8.096L293.473 9.03342L293.125 8.096ZM378.661 8.384L378.292 9.31341L378.3 9.31666L378.309 9.31976L378.661 8.384ZM412.645 29.696L411.945 30.4104L412.645 29.696ZM434.533 63.104L433.604 63.4731L433.609 63.4847L434.533 63.104ZM434.245 150.368L433.319 149.99L433.317 149.997L434.245 150.368ZM411.493 185.504L410.779 184.804L410.779 184.804L411.493 185.504ZM377.221 208.832L377.614 209.752L377.62 209.749L377.221 208.832ZM353.317 159.872L352.893 158.966L352.882 158.972L353.317 159.872ZM369.157 148.352L368.421 147.675L369.157 148.352ZM379.525 131.648L380.456 132.015L380.459 132.005L379.525 131.648ZM379.813 88.448L378.862 88.7565L378.865 88.7642L379.813 88.448ZM369.733 70.016L368.958 70.6477L368.965 70.6561L368.972 70.6645L369.733 70.016ZM353.893 57.92L353.469 58.8255L353.479 58.8304L353.893 57.92ZM312.421 58.208L312.868 59.1025L312.88 59.0966L312.421 58.208ZM297.445 70.304L296.67 69.6723L296.667 69.6757L297.445 70.304ZM288.229 130.784L287.275 131.084L287.28 131.1L287.286 131.117L288.229 130.784ZM298.021 148.064L297.258 148.71L298.021 148.064ZM313.285 159.872L312.85 160.772L312.861 160.777L313.285 159.872ZM334.597 216.184C318.388 216.184 303.636 213.515 290.329 208.192L289.586 210.048C303.158 215.477 318.166 218.184 334.597 218.184V216.184ZM290.345 208.198C277.213 202.679 265.902 195.072 256.399 185.38L254.971 186.78C264.669 196.672 276.205 204.425 289.57 210.042L290.345 208.198ZM256.399 185.38C246.899 175.69 239.482 164.093 234.152 150.577L232.291 151.311C237.713 165.059 245.271 176.886 254.971 186.78L256.399 185.38ZM234.156 150.589C229.02 137.083 226.445 122.229 226.445 106.016H224.445C224.445 122.443 227.055 137.541 232.287 151.299L234.156 150.589ZM226.445 106.016C226.445 90.2024 229.303 75.9443 234.998 63.2247L233.173 62.4073C227.348 75.4157 224.445 89.9576 224.445 106.016H226.445ZM234.995 63.2308C240.895 50.2889 248.787 39.2636 258.668 30.1428L257.311 28.6732C247.224 37.9844 239.179 49.2311 233.175 62.4012L234.995 63.2308ZM258.668 30.1428C268.551 21.02 280.149 13.9826 293.473 9.03342L292.777 7.15858C279.222 12.1934 267.396 19.364 257.311 28.6732L258.668 30.1428ZM293.473 9.03342C306.797 4.08463 320.887 1.60799 335.749 1.60799V-0.392006C320.66 -0.392006 306.333 2.12336 292.777 7.15858L293.473 9.03342ZM335.749 1.60799C351.188 1.60799 365.366 4.18079 378.292 9.31341L379.03 7.45458C365.845 2.2192 351.414 -0.392006 335.749 -0.392006V1.60799ZM378.309 9.31976C391.437 14.2666 402.644 21.2986 411.945 30.4104L413.345 28.9816C403.831 19.6614 392.382 12.4854 379.014 7.44823L378.309 9.31976ZM411.945 30.4104C421.247 39.5221 428.468 50.5381 433.604 63.473L435.463 62.735C430.231 49.5579 422.859 38.3018 413.345 28.9816L411.945 30.4104ZM433.609 63.4847C438.929 76.4054 441.597 90.7699 441.597 106.592H443.597C443.597 90.5421 440.89 75.9146 435.458 62.7232L433.609 63.4847ZM441.597 106.592C441.597 122.022 438.836 136.485 433.32 149.99L435.171 150.746C440.791 136.987 443.597 122.266 443.597 106.592H441.597ZM433.317 149.997C427.988 163.318 420.476 174.917 410.779 184.804L412.207 186.204C422.095 176.123 429.75 164.298 435.174 150.739L433.317 149.997ZM410.779 184.804C401.274 194.499 389.959 202.203 376.823 207.915L377.62 209.749C390.98 203.94 402.512 196.093 412.207 186.204L410.779 184.804ZM376.829 207.912C363.907 213.423 349.834 216.184 334.597 216.184V218.184C350.081 218.184 364.424 215.377 377.614 209.752L376.829 207.912ZM333.733 165.192C340.977 165.192 347.655 163.723 353.753 160.772L352.882 158.972C347.075 161.781 340.698 163.192 333.733 163.192V165.192ZM353.742 160.777C359.999 157.845 365.386 153.929 369.893 149.029L368.421 147.675C364.097 152.375 358.924 156.139 352.893 158.967L353.742 160.777ZM369.893 149.029C374.396 144.134 377.917 138.46 380.456 132.015L378.595 131.281C376.142 137.508 372.75 142.97 368.421 147.675L369.893 149.029ZM380.459 132.005C383 125.361 384.269 118.424 384.269 111.2H382.269C382.269 118.184 381.043 124.879 378.591 131.291L380.459 132.005ZM384.269 111.2C384.269 102.851 383.104 95.1583 380.762 88.1318L378.865 88.7642C381.13 95.5617 382.269 103.037 382.269 111.2H384.269ZM380.764 88.1395C378.424 80.9229 375.003 74.6606 370.495 69.3675L368.972 70.6645C373.295 75.7394 376.595 81.7651 378.862 88.7565L380.764 88.1395ZM370.509 69.3843C366.183 64.0759 360.778 59.9507 354.307 57.0096L353.479 58.8304C359.681 61.6492 364.835 65.5881 368.958 70.6477L370.509 69.3843ZM354.318 57.0145C348.018 54.0616 340.765 52.6 332.581 52.6V54.6C340.526 54.6 347.48 56.0184 353.469 58.8255L354.318 57.0145ZM332.581 52.6C324.953 52.6 318.072 54.1659 311.963 57.3194L312.88 59.0966C318.674 56.1061 325.234 54.6 332.581 54.6V52.6ZM311.974 57.3136C306.082 60.2594 300.98 64.3828 296.67 69.6723L298.22 70.9357C302.359 65.8572 307.24 61.9166 312.868 59.1024L311.974 57.3136ZM296.667 69.6757C292.549 74.7743 289.421 80.7443 287.275 87.5722L289.183 88.1718C291.261 81.5597 294.277 75.8177 298.223 70.9323L296.667 69.6757ZM287.275 87.5722C285.131 94.3951 284.061 101.601 284.061 109.184H286.061C286.061 101.791 287.104 94.7889 289.183 88.1718L287.275 87.5722ZM284.061 109.184C284.061 116.957 285.13 124.258 287.275 131.084L289.183 130.484C287.104 123.87 286.061 116.771 286.061 109.184H284.061ZM287.286 131.117C289.628 137.752 292.951 143.62 297.258 148.71L298.785 147.418C294.644 142.524 291.438 136.872 289.172 130.451L287.286 131.117ZM297.258 148.71C301.573 153.81 306.773 157.832 312.85 160.772L313.721 158.972C307.893 156.152 302.917 152.302 298.785 147.418L297.258 148.71ZM312.861 160.777C319.151 163.726 326.114 165.192 333.733 165.192V163.192C326.377 163.192 319.708 161.778 313.71 158.967L312.861 160.777ZM651.849 212H650.849V213H651.849V212ZM651.849 65.984H652.849L650.882 65.7303L651.849 65.984ZM613.546 212V213H614.317L614.513 212.254L613.546 212ZM580.426 212L579.461 212.264L579.663 213H580.426V212ZM540.393 65.984L541.358 65.7196L539.393 65.984H540.393ZM540.393 212V213H541.393V212H540.393ZM487.402 212H486.402V213H487.402V212ZM487.402 6.36799V5.36799H486.402V6.36799H487.402ZM577.833 6.36799L578.814 6.16997L578.652 5.36799H577.833V6.36799ZM600.874 120.416L599.893 120.614L601.851 120.628L600.874 120.416ZM625.642 6.36799V5.36799H624.835L624.664 6.15576L625.642 6.36799ZM711.466 6.36799H712.466V5.36799H711.466V6.36799ZM711.466 212V213H712.466V212H711.466ZM652.849 212V65.984H650.849V212H652.849ZM650.882 65.7303L612.578 211.746L614.513 212.254L652.817 66.2377L650.882 65.7303ZM613.546 211H580.426V213H613.546V211ZM581.39 211.736L541.358 65.7196L539.429 66.2484L579.461 212.264L581.39 211.736ZM539.393 65.984V212H541.393V65.984H539.393ZM540.393 211H487.402V213H540.393V211ZM488.402 212V6.36799H486.402V212H488.402ZM487.402 7.36799H577.833V5.36799H487.402V7.36799ZM576.853 6.56601L599.893 120.614L601.854 120.218L578.814 6.16997L576.853 6.56601ZM601.851 120.628L626.619 6.58021L624.664 6.15576L599.896 120.204L601.851 120.628ZM625.642 7.36799H711.466V5.36799H625.642V7.36799ZM710.466 6.36799V212H712.466V6.36799H710.466ZM711.466 211H651.849V213H711.466V211ZM764.966 212H763.966V213H764.966V212ZM764.966 6.36799V5.36799H763.966V6.36799H764.966ZM931.718 6.36799H932.718V5.36799H931.718V6.36799ZM931.718 56.192V57.192H932.718V56.192H931.718ZM824.006 56.192V55.192H823.006V56.192H824.006ZM824.006 82.976H823.006V83.976H824.006V82.976ZM909.542 82.976H910.542V81.976H909.542V82.976ZM909.542 130.208V131.208H910.542V130.208H909.542ZM824.006 130.208V129.208H823.006V130.208H824.006ZM824.006 162.176H823.006V163.176H824.006V162.176ZM932.006 162.176H933.006V161.176H932.006V162.176ZM932.006 212V213H933.006V212H932.006ZM765.966 212V6.36799H763.966V212H765.966ZM764.966 7.36799H931.718V5.36799H764.966V7.36799ZM930.718 6.36799V56.192H932.718V6.36799H930.718ZM931.718 55.192H824.006V57.192H931.718V55.192ZM823.006 56.192V82.976H825.006V56.192H823.006ZM824.006 83.976H909.542V81.976H824.006V83.976ZM908.542 82.976V130.208H910.542V82.976H908.542ZM909.542 129.208H824.006V131.208H909.542V129.208ZM823.006 130.208V162.176H825.006V130.208H823.006ZM824.006 163.176H932.006V161.176H824.006V163.176ZM931.006 162.176V212H933.006V162.176H931.006ZM932.006 211H764.966V213H932.006V211Z" fill="black" fill-opacity="0.11"/>
</svg>
