<svg width="1727" height="218" viewBox="0 0 1727 218" fill="none" xmlns="http://www.w3.org/2000/svg">
<path d="M0.416 212H-0.583999V213H0.416V212ZM0.416 6.36799V5.36799H-0.583999V6.36799H0.416ZM153.056 12.992L152.584 13.8738L153.056 12.992ZM173.504 30.272L172.707 30.8754L172.716 30.8875L172.725 30.8993L173.504 30.272ZM185.6 53.888L184.638 54.16L184.641 54.1726L184.645 54.1851L185.6 53.888ZM183.872 106.88L182.969 106.45L182.965 106.459L182.961 106.468L183.872 106.88ZM168.896 127.904L168.211 127.175L168.896 127.904ZM147.008 141.728L147.376 142.658L147.008 141.728ZM60.32 146.624V145.624H59.32V146.624H60.32ZM60.32 212V213H61.32V212H60.32ZM59.456 56.768V55.768H58.456V56.768H59.456ZM59.456 96.512H58.456V97.512H59.456V96.512ZM124.256 61.088L123.656 61.888L123.665 61.895L123.675 61.9017L124.256 61.088ZM1.416 212V6.36799H-0.583999V212H1.416ZM0.416 7.36799H123.68V5.36799H0.416V7.36799ZM123.68 7.36799C134.878 7.36799 144.501 9.55008 152.584 13.8738L153.528 12.1102C145.099 7.6019 135.138 5.36799 123.68 5.36799V7.36799ZM152.584 13.8738C160.72 18.2252 167.422 23.8925 172.707 30.8754L174.301 29.6685C168.834 22.4435 161.904 16.5908 153.528 12.1102L152.584 13.8738ZM172.725 30.8993C178.206 37.7028 182.177 45.453 184.638 54.16L186.562 53.616C184.031 44.6589 179.938 36.6651 174.283 29.6447L172.725 30.8993ZM184.645 54.1851C187.304 62.7313 188.632 71.3672 188.632 80.096H190.632C190.632 71.1608 189.272 62.3247 186.555 53.5909L184.645 54.1851ZM188.632 80.096C188.632 89.7538 186.739 98.5329 182.969 106.45L184.775 107.31C188.685 99.0991 190.632 90.0222 190.632 80.096H188.632ZM182.961 106.468C179.366 114.415 174.45 121.314 168.211 127.175L169.581 128.633C176.014 122.589 181.082 115.473 184.783 107.292L182.961 106.468ZM168.211 127.175C161.969 133.039 154.781 137.579 146.64 140.798L147.376 142.658C155.747 139.349 163.151 134.673 169.581 128.633L168.211 127.175ZM146.64 140.798C138.506 144.014 129.895 145.624 120.8 145.624V147.624C130.137 147.624 138.998 145.97 147.376 142.658L146.64 140.798ZM120.8 145.624H60.32V147.624H120.8V145.624ZM59.32 146.624V212H61.32V146.624H59.32ZM60.32 211H0.416V213H60.32V211ZM58.456 56.768V96.512H60.456V56.768H58.456ZM59.456 97.512H111.872V95.512H59.456V97.512ZM111.872 97.512C117.989 97.512 122.795 95.9314 126.115 92.6111L124.701 91.1969C121.877 94.0206 117.659 95.512 111.872 95.512V97.512ZM126.115 92.6111C129.604 89.1219 131.304 84.4308 131.304 78.656H129.304C129.304 84.0172 127.74 88.1581 124.701 91.1969L126.115 92.6111ZM131.304 78.656C131.304 69.7458 129.282 63.4493 124.837 60.2743L123.675 61.9017C127.294 64.4866 129.304 69.9021 129.304 78.656H131.304ZM124.856 60.288C120.8 57.2458 115.579 55.768 109.28 55.768V57.768C115.269 57.768 120.032 59.1702 123.656 61.888L124.856 60.288ZM109.28 55.768H59.456V57.768H109.28V55.768ZM368.581 212L367.764 212.577L368.063 213H368.581V212ZM363.973 201.344L362.993 201.54L363.973 201.344ZM362.245 189.824L361.249 189.915L361.25 189.924L362.245 189.824ZM360.229 169.664L359.233 169.745L359.234 169.758L359.235 169.771L360.229 169.664ZM355.909 149.792L356.846 149.441L356.838 149.421L356.83 149.402L355.909 149.792ZM347.557 139.424L347.072 140.298L347.557 139.424ZM292.837 136.544V135.544H291.837V136.544H292.837ZM292.837 212V213H293.837V212H292.837ZM233.797 212H232.797V213H233.797V212ZM233.797 6.36799V5.36799H232.797V6.36799H233.797ZM371.749 8.67199L371.591 9.65944L371.594 9.65991L371.749 8.67199ZM397.957 17.6L397.459 18.4669L397.467 18.4716L397.475 18.4762L397.957 17.6ZM413.797 96.512L412.991 95.9206L413.797 96.512ZM387.877 115.232L387.546 114.288L385.318 115.07L387.43 116.126L387.877 115.232ZM404.293 127.904L403.515 128.532L403.529 128.549L403.543 128.565L404.293 127.904ZM414.085 144.032L413.153 144.393L413.16 144.411L413.168 144.43L414.085 144.032ZM419.269 162.464L418.28 162.609L418.282 162.626L418.285 162.643L419.269 162.464ZM421.861 181.76L422.859 181.691L422.858 181.682L422.857 181.672L421.861 181.76ZM423.301 197.888L422.307 197.998L422.309 198.017L422.312 198.035L423.301 197.888ZM430.213 212V213H432.474L430.953 211.327L430.213 212ZM292.837 54.176V53.176H291.837V54.176H292.837ZM292.837 89.888H291.837V90.888H292.837V89.888ZM369.398 211.423C367.173 208.271 365.694 204.848 364.954 201.148L362.993 201.54C363.789 205.52 365.381 209.201 367.764 212.577L369.398 211.423ZM364.954 201.148C364.192 197.339 363.621 193.532 363.24 189.725L361.25 189.924C361.638 193.796 362.218 197.669 362.993 201.54L364.954 201.148ZM363.241 189.733C362.665 183.391 361.992 176.665 361.223 169.557L359.235 169.771C360.003 176.871 360.674 183.585 361.249 189.915L363.241 189.733ZM361.226 169.583C360.643 162.395 359.185 155.679 356.846 149.441L354.973 150.143C357.242 156.193 358.663 162.725 359.233 169.745L361.226 169.583ZM356.83 149.402C354.663 144.28 351.755 140.612 348.043 138.55L347.072 140.298C350.271 142.076 352.931 145.32 354.988 150.182L356.83 149.402ZM348.043 138.55C344.39 136.52 339.694 135.544 334.021 135.544V137.544C339.485 137.544 343.813 138.488 347.072 140.298L348.043 138.55ZM334.021 135.544H292.837V137.544H334.021V135.544ZM291.837 136.544V212H293.837V136.544H291.837ZM292.837 211H233.797V213H292.837V211ZM234.797 212V6.36799H232.797V212H234.797ZM233.797 7.36799H342.373V5.36799H233.797V7.36799ZM342.373 7.36799C352.306 7.36799 362.045 8.13201 371.591 9.65943L371.907 7.68455C362.254 6.13997 352.409 5.36799 342.373 5.36799V7.36799ZM371.594 9.65991C381.28 11.1792 389.897 14.1188 397.459 18.4669L398.456 16.7331C390.658 12.2492 381.803 9.2368 371.904 7.68407L371.594 9.65991ZM397.475 18.4762C404.991 22.6096 411.006 28.5263 415.526 36.2492L417.252 35.2388C412.557 27.2176 406.284 21.0384 398.439 16.7238L397.475 18.4762ZM415.526 36.2492C420.017 43.9216 422.301 53.9068 422.301 66.272H424.301C424.301 53.6771 421.977 43.3104 417.252 35.2388L415.526 36.2492ZM422.301 66.272C422.301 77.5963 419.191 87.4653 412.991 95.9206L414.604 97.1034C421.075 88.2787 424.301 77.9877 424.301 66.272H422.301ZM412.991 95.9206C406.784 104.384 398.316 110.509 387.546 114.288L388.208 116.176C399.326 112.275 408.138 105.92 414.604 97.1034L412.991 95.9206ZM387.43 116.126C394.24 119.531 399.59 123.672 403.515 128.532L405.071 127.276C400.933 122.152 395.339 117.845 388.324 114.338L387.43 116.126ZM403.543 128.565C407.689 133.276 410.891 138.551 413.153 144.393L415.018 143.671C412.671 137.609 409.346 132.132 405.044 127.243L403.543 128.565ZM413.168 144.43C415.627 150.105 417.332 156.164 418.28 162.609L420.259 162.319C419.286 155.708 417.535 149.479 415.003 143.634L413.168 144.43ZM418.285 162.643C419.432 168.948 420.292 175.35 420.865 181.848L422.857 181.672C422.279 175.114 421.411 168.652 420.253 162.285L418.285 162.643ZM420.864 181.829C421.249 187.41 421.73 192.8 422.307 197.998L424.295 197.778C423.721 192.608 423.242 187.246 422.859 181.691L420.864 181.829ZM422.312 198.035C423.112 203.432 425.512 208.316 429.473 212.673L430.953 211.327C427.234 207.236 425.027 202.712 424.29 197.741L422.312 198.035ZM430.213 211H368.581V213H430.213V211ZM291.837 54.176V89.888H293.837V54.176H291.837ZM292.837 90.888H346.981V88.888H292.837V90.888ZM346.981 90.888C352.821 90.888 357.379 89.3005 360.461 85.9578C363.528 82.6305 364.973 77.7349 364.973 71.456H362.973C362.973 77.4651 361.587 81.7855 358.99 84.6022C356.408 87.4035 352.469 88.888 346.981 88.888V90.888ZM364.973 71.456C364.973 65.5583 363.599 60.9489 360.672 57.8137C357.734 54.6655 353.394 53.176 347.845 53.176V55.176C353.049 55.176 356.773 56.5665 359.21 59.1783C361.66 61.8031 362.973 65.8336 362.973 71.456H364.973ZM347.845 53.176H292.837V55.176H347.845V53.176ZM525.589 209.12L525.201 210.042L525.209 210.045L525.217 210.048L525.589 209.12ZM491.316 186.08L490.602 186.78L491.316 186.08ZM468.853 150.944L467.918 151.299L467.922 151.311L468.853 150.944ZM469.717 62.816L468.807 62.4012L468.804 62.4073L469.717 62.816ZM493.621 29.408L494.299 30.1428L493.621 29.408ZM528.757 8.096L529.105 9.03342L528.757 8.096ZM614.293 8.384L613.923 9.31341L613.932 9.31666L613.94 9.31976L614.293 8.384ZM648.277 29.696L647.577 30.4104L648.277 29.696ZM670.164 63.104L669.235 63.4731L669.24 63.4847L670.164 63.104ZM669.877 150.368L668.951 149.99L668.948 149.997L669.877 150.368ZM647.125 185.504L646.411 184.804L646.41 184.804L647.125 185.504ZM612.853 208.832L613.245 209.752L613.251 209.749L612.853 208.832ZM588.949 159.872L588.524 158.966L588.513 158.972L588.949 159.872ZM604.789 148.352L604.053 147.675L604.789 148.352ZM615.156 131.648L616.087 132.015L616.091 132.005L615.156 131.648ZM615.445 88.448L614.493 88.7565L614.496 88.7642L615.445 88.448ZM605.365 70.016L604.589 70.6477L604.596 70.6561L604.603 70.6645L605.365 70.016ZM589.525 57.92L589.1 58.8255L589.111 58.8304L589.525 57.92ZM548.052 58.208L548.5 59.1025L548.511 59.0966L548.052 58.208ZM533.077 70.304L532.301 69.6723L532.299 69.6757L533.077 70.304ZM523.861 130.784L522.906 131.084L522.912 131.1L522.918 131.117L523.861 130.784ZM533.653 148.064L532.889 148.71L533.653 148.064ZM548.917 159.872L548.481 160.772L548.492 160.777L548.917 159.872ZM570.229 216.184C554.02 216.184 539.268 213.515 525.96 208.192L525.217 210.048C538.789 215.477 553.797 218.184 570.229 218.184V216.184ZM525.976 208.198C512.845 202.679 501.533 195.072 492.031 185.38L490.602 186.78C500.3 196.672 511.836 204.425 525.201 210.042L525.976 208.198ZM492.031 185.38C482.531 175.69 475.113 164.093 469.783 150.577L467.922 151.311C473.344 165.059 480.903 176.886 490.602 186.78L492.031 185.38ZM469.787 150.589C464.651 137.083 462.077 122.229 462.077 106.016H460.077C460.077 122.443 462.686 137.541 467.918 151.299L469.787 150.589ZM462.077 106.016C462.077 90.2024 464.934 75.9443 470.629 63.2247L468.804 62.4073C462.979 75.4157 460.077 89.9576 460.077 106.016H462.077ZM470.626 63.2308C476.526 50.2889 484.418 39.2636 494.299 30.1428L492.942 28.6732C482.855 37.9844 474.811 49.2311 468.807 62.4012L470.626 63.2308ZM494.299 30.1428C504.182 21.02 515.78 13.9826 529.105 9.03342L528.408 7.15858C514.853 12.1934 503.027 19.364 492.942 28.6732L494.299 30.1428ZM529.105 9.03342C542.428 4.08463 556.518 1.60799 571.38 1.60799V-0.392006C556.291 -0.392006 541.965 2.12336 528.408 7.15858L529.105 9.03342ZM571.38 1.60799C586.82 1.60799 600.997 4.18079 613.923 9.31341L614.662 7.45458C601.476 2.2192 587.045 -0.392006 571.38 -0.392006V1.60799ZM613.94 9.31976C627.068 14.2666 638.275 21.2986 647.577 30.4104L648.976 28.9816C639.462 19.6614 628.013 12.4854 614.645 7.44823L613.94 9.31976ZM647.577 30.4104C656.878 39.5221 664.099 50.5381 669.235 63.473L671.094 62.735C665.862 49.5579 658.491 38.3018 648.976 28.9816L647.577 30.4104ZM669.24 63.4847C674.56 76.4054 677.229 90.7699 677.229 106.592H679.229C679.229 90.5421 676.521 75.9146 671.089 62.7232L669.24 63.4847ZM677.229 106.592C677.229 122.022 674.467 136.485 668.951 149.99L670.802 150.746C676.422 136.987 679.229 122.266 679.229 106.592H677.229ZM668.948 149.997C663.619 163.318 656.107 174.917 646.411 184.804L647.838 186.204C657.726 176.123 665.382 164.298 670.805 150.739L668.948 149.997ZM646.41 184.804C636.905 194.499 625.59 202.203 612.454 207.915L613.251 209.749C626.611 203.94 638.144 196.093 647.839 186.204L646.41 184.804ZM612.46 207.912C599.538 213.423 585.465 216.184 570.229 216.184V218.184C585.712 218.184 600.055 215.377 613.245 209.752L612.46 207.912ZM569.365 165.192C576.608 165.192 583.286 163.723 589.384 160.772L588.513 158.972C582.707 161.781 576.329 163.192 569.365 163.192V165.192ZM589.373 160.777C595.63 157.845 601.017 153.929 605.524 149.029L604.053 147.675C599.728 152.375 594.555 156.139 588.524 158.967L589.373 160.777ZM605.524 149.029C610.027 144.134 613.548 138.46 616.087 132.015L614.226 131.281C611.773 137.508 608.382 142.97 604.053 147.675L605.524 149.029ZM616.091 132.005C618.631 125.361 619.901 118.424 619.901 111.2H617.901C617.901 118.184 616.674 124.879 614.222 131.291L616.091 132.005ZM619.901 111.2C619.901 102.851 618.735 95.1583 616.393 88.1318L614.496 88.7642C616.762 95.5617 617.901 103.037 617.901 111.2H619.901ZM616.396 88.1395C614.055 80.9229 610.635 74.6606 606.126 69.3675L604.603 70.6645C608.926 75.7394 612.226 81.7651 614.493 88.7565L616.396 88.1395ZM606.14 69.3843C601.814 64.0759 596.409 59.9507 589.938 57.0096L589.111 58.8304C595.312 61.6492 600.467 65.5881 604.589 70.6477L606.14 69.3843ZM589.949 57.0145C583.649 54.0616 576.396 52.6 568.213 52.6V54.6C576.157 54.6 583.112 56.0184 589.1 58.8255L589.949 57.0145ZM568.213 52.6C560.584 52.6 553.704 54.1659 547.594 57.3194L548.511 59.0966C554.305 56.1061 560.865 54.6 568.213 54.6V52.6ZM547.605 57.3136C541.714 60.2594 536.611 64.3828 532.301 69.6723L533.852 70.9357C537.99 65.8572 542.871 61.9166 548.5 59.1024L547.605 57.3136ZM532.299 69.6757C528.18 74.7743 525.052 80.7443 522.906 87.5722L524.815 88.1718C526.893 81.5597 529.909 75.8177 533.854 70.9323L532.299 69.6757ZM522.906 87.5722C520.762 94.3951 519.693 101.601 519.693 109.184H521.693C521.693 101.791 522.735 94.7889 524.815 88.1718L522.906 87.5722ZM519.693 109.184C519.693 116.957 520.761 124.258 522.906 131.084L524.815 130.484C522.736 123.87 521.693 116.771 521.693 109.184H519.693ZM522.918 131.117C525.26 137.752 528.582 143.62 532.889 148.71L534.416 147.418C530.275 142.524 527.07 136.872 524.804 130.451L522.918 131.117ZM532.889 148.71C537.204 153.81 542.405 157.832 548.481 160.772L549.352 158.972C543.524 156.152 538.549 152.302 534.416 147.418L532.889 148.71ZM548.492 160.777C554.782 163.726 561.745 165.192 569.365 165.192V163.192C562.008 163.192 555.339 161.778 549.341 158.967L548.492 160.777ZM770.467 6.36799V5.36799H769.467V6.36799H770.467ZM830.083 6.36799H831.083V5.36799H830.083V6.36799ZM823.459 176.864L822.561 176.424L822.557 176.433L823.459 176.864ZM806.179 199.04L805.547 198.265L805.537 198.273L806.179 199.04ZM781.411 212.576L781.722 213.527L781.411 212.576ZM719.779 213.44L719.49 214.397L719.779 213.44ZM701.635 204.8L700.691 204.471L700.466 205.118L700.988 205.562L701.635 204.8ZM717.475 159.296L717.817 158.356L716.864 158.01L716.531 158.967L717.475 159.296ZM730.147 163.04L729.926 164.015L729.947 164.02L729.968 164.024L730.147 163.04ZM762.979 157.856L763.625 158.619L762.979 157.856ZM770.467 7.36799H830.083V5.36799H770.467V7.36799ZM829.083 6.36799V145.472H831.083V6.36799H829.083ZM829.083 145.472C829.083 157.252 826.899 167.56 822.561 176.424L824.357 177.304C828.852 168.12 831.083 157.5 831.083 145.472H829.083ZM822.557 176.433C818.394 185.137 812.724 192.41 805.547 198.265L806.811 199.815C814.226 193.766 820.076 186.255 824.361 177.295L822.557 176.433ZM805.537 198.273C798.537 204.138 790.396 208.59 781.101 211.625L781.722 213.527C791.243 210.418 799.613 205.846 806.821 199.807L805.537 198.273ZM781.101 211.625C771.798 214.663 762.015 216.184 751.747 216.184V218.184C762.216 218.184 772.209 216.633 781.722 213.527L781.101 211.625ZM751.747 216.184C738.744 216.184 728.196 214.94 720.069 212.483L719.49 214.397C727.875 216.932 738.638 218.184 751.747 218.184V216.184ZM720.069 212.483C711.864 210.002 705.969 207.171 702.283 204.038L700.988 205.562C704.982 208.957 711.183 211.886 719.49 214.397L720.069 212.483ZM702.58 205.129L718.42 159.625L716.531 158.967L700.691 204.471L702.58 205.129ZM717.133 160.236C721.395 161.786 725.659 163.046 729.926 164.015L730.369 162.065C726.187 161.114 722.003 159.878 717.817 158.356L717.133 160.236ZM729.968 164.024C734.241 164.801 738.238 165.192 741.955 165.192V163.192C738.377 163.192 734.501 162.815 730.326 162.056L729.968 164.024ZM741.955 165.192C751.126 165.192 758.394 163.045 763.625 158.619L762.333 157.093C757.58 161.115 750.832 163.192 741.955 163.192V165.192ZM763.625 158.619C768.893 154.162 771.467 147.707 771.467 139.424H769.467C769.467 147.269 767.049 153.102 762.333 157.093L763.625 158.619ZM771.467 139.424V6.36799H769.467V139.424H771.467ZM881.066 212H880.066V213H881.066V212ZM881.066 6.36799V5.36799H880.066V6.36799H881.066ZM1047.82 6.36799H1048.82V5.36799H1047.82V6.36799ZM1047.82 56.192V57.192H1048.82V56.192H1047.82ZM940.106 56.192V55.192H939.106V56.192H940.106ZM940.106 82.976H939.106V83.976H940.106V82.976ZM1025.64 82.976H1026.64V81.976H1025.64V82.976ZM1025.64 130.208V131.208H1026.64V130.208H1025.64ZM940.106 130.208V129.208H939.106V130.208H940.106ZM940.106 162.176H939.106V163.176H940.106V162.176ZM1048.11 162.176H1049.11V161.176H1048.11V162.176ZM1048.11 212V213H1049.11V212H1048.11ZM882.066 212V6.36799H880.066V212H882.066ZM881.066 7.36799H1047.82V5.36799H881.066V7.36799ZM1046.82 6.36799V56.192H1048.82V6.36799H1046.82ZM1047.82 55.192H940.106V57.192H1047.82V55.192ZM939.106 56.192V82.976H941.106V56.192H939.106ZM940.106 83.976H1025.64V81.976H940.106V83.976ZM1024.64 82.976V130.208H1026.64V82.976H1024.64ZM1025.64 129.208H940.106V131.208H1025.64V129.208ZM939.106 130.208V162.176H941.106V130.208H939.106ZM940.106 163.176H1048.11V161.176H940.106V163.176ZM1047.11 162.176V212H1049.11V162.176H1047.11ZM1048.11 211H881.066V213H1048.11V211ZM1249.07 94.208L1248.12 94.498L1248.33 95.208H1249.07V94.208ZM1230.07 64.544L1229.42 65.308L1229.43 65.3157L1229.44 65.3232L1230.07 64.544ZM1162.1 67.712L1161.39 67.0048L1161.38 67.0122L1162.1 67.712ZM1151.73 130.496L1150.78 130.805L1150.78 130.812L1151.73 130.496ZM1161.81 148.352L1162.56 147.689L1161.81 148.352ZM1177.65 160.16L1177.23 161.065L1177.24 161.073L1177.26 161.081L1177.65 160.16ZM1215.38 161.312L1215.04 160.37L1215.38 161.312ZM1230.35 153.248L1230.95 154.048L1230.96 154.04L1230.97 154.032L1230.35 153.248ZM1242.45 140.576L1243.26 141.16L1243.27 141.153L1243.27 141.145L1242.45 140.576ZM1249.94 123.872V122.872H1249.16L1248.97 123.629L1249.94 123.872ZM1304.95 123.872L1305.94 123.959L1306.04 122.872H1304.95V123.872ZM1293.71 161.024L1292.84 160.542L1292.83 160.547L1293.71 161.024ZM1269.81 190.688L1270.46 191.446L1270.46 191.445L1269.81 190.688ZM1236.98 210.272L1237.33 211.207L1237.34 211.203L1236.98 210.272ZM1153.75 208.832L1153.36 209.753L1153.37 209.758L1153.75 208.832ZM1118.9 185.504L1118.18 186.197L1118.18 186.204L1118.9 185.504ZM1096.43 150.368L1095.5 150.728L1095.51 150.739L1096.43 150.368ZM1096.43 65.696L1095.51 65.3104L1095.51 65.3222L1096.43 65.696ZM1118.9 32L1118.2 31.2859L1118.19 31.2929L1118.9 32ZM1154.03 9.24799L1154.41 10.1738L1154.42 10.1691L1154.03 9.24799ZM1238.42 6.944L1238.09 7.88969L1238.42 6.944ZM1270.96 25.376L1270.31 26.1353L1270.32 26.1417L1270.96 25.376ZM1294.58 55.04L1293.69 55.5046L1293.7 55.5106L1294.58 55.04ZM1306.1 94.208V95.208H1307.21L1307.09 94.1033L1306.1 94.208ZM1250.03 93.918C1246.14 81.0866 1239.71 71.015 1230.69 63.7648L1229.44 65.3232C1238.09 72.2809 1244.33 81.9854 1248.12 94.498L1250.03 93.918ZM1230.71 63.78C1221.88 56.3258 1211.48 52.6 1199.54 52.6V54.6C1211.02 54.6 1220.97 58.1702 1229.42 65.308L1230.71 63.78ZM1199.54 52.6C1183.77 52.6 1171.02 57.3777 1161.39 67.0049L1162.8 68.4191C1171.99 59.2303 1184.2 54.6 1199.54 54.6V52.6ZM1161.38 67.0122C1151.94 76.6559 1147.27 90.0876 1147.27 107.168H1149.27C1149.27 90.4564 1153.83 77.5841 1162.81 68.4118L1161.38 67.0122ZM1147.27 107.168C1147.27 115.707 1148.44 123.589 1150.78 130.805L1152.68 130.187C1150.41 123.195 1149.27 115.525 1149.27 107.168H1147.27ZM1150.78 130.812C1153.12 137.84 1156.55 143.913 1161.06 149.015L1162.56 147.689C1158.24 142.807 1154.94 136.976 1152.68 130.18L1150.78 130.812ZM1161.06 149.015C1165.57 154.111 1170.96 158.129 1177.23 161.065L1178.07 159.255C1172.05 156.431 1166.88 152.577 1162.56 147.689L1161.06 149.015ZM1177.26 161.081C1183.74 163.829 1191.07 165.192 1199.25 165.192V163.192C1191.3 163.192 1184.23 161.867 1178.04 159.239L1177.26 161.081ZM1199.25 165.192C1204.75 165.192 1210.24 164.21 1215.71 162.254L1215.04 160.37C1209.77 162.254 1204.5 163.192 1199.25 163.192V165.192ZM1215.71 162.254C1221.19 160.3 1226.27 157.564 1230.95 154.048L1229.75 152.448C1225.23 155.844 1220.32 158.484 1215.04 160.37L1215.71 162.254ZM1230.97 154.032C1235.66 150.326 1239.75 146.035 1243.26 141.16L1241.64 139.992C1238.24 144.717 1234.27 148.874 1229.73 152.464L1230.97 154.032ZM1243.27 141.145C1246.8 136.05 1249.34 130.37 1250.91 124.115L1248.97 123.629C1247.46 129.662 1245.01 135.118 1241.63 140.007L1243.27 141.145ZM1249.94 124.872H1304.95V122.872H1249.94V124.872ZM1303.95 123.785C1302.81 136.896 1299.11 149.145 1292.84 160.542L1294.59 161.506C1300.99 149.863 1304.78 137.344 1305.94 123.959L1303.95 123.785ZM1292.83 160.547C1286.75 171.768 1278.86 181.562 1269.16 189.931L1270.46 191.445C1280.35 182.918 1288.39 172.936 1294.59 161.501L1292.83 160.547ZM1269.16 189.93C1259.65 198.109 1248.8 204.58 1236.61 209.341L1237.34 211.203C1249.73 206.364 1260.77 199.779 1270.46 191.446L1269.16 189.93ZM1236.62 209.338C1224.64 213.902 1212.19 216.184 1199.25 216.184V218.184C1212.43 218.184 1225.12 215.858 1237.33 211.206L1236.62 209.338ZM1199.25 216.184C1182.66 216.184 1167.62 213.419 1154.12 207.906L1153.37 209.758C1167.13 215.381 1182.43 218.184 1199.25 218.184V216.184ZM1154.14 207.911C1140.62 202.198 1129.11 194.494 1119.61 184.804L1118.18 186.204C1127.88 196.098 1139.61 203.946 1153.36 209.753L1154.14 207.911ZM1119.62 184.811C1110.11 174.924 1102.69 163.322 1097.36 149.997L1095.51 150.739C1100.93 164.294 1108.48 176.116 1118.18 186.197L1119.62 184.811ZM1097.37 150.008C1092.23 136.692 1089.66 122.319 1089.66 106.88H1087.66C1087.66 122.545 1090.27 137.164 1095.5 150.728L1097.37 150.008ZM1089.66 106.88C1089.66 92.4093 1092.23 78.8089 1097.36 66.0698L1095.51 65.3222C1090.27 78.3111 1087.66 92.1667 1087.66 106.88H1089.66ZM1097.36 66.0816C1102.68 53.3345 1110.1 42.2125 1119.6 32.7071L1118.19 31.2929C1108.5 40.9875 1100.94 52.3295 1095.51 65.3104L1097.36 66.0816ZM1119.6 32.7141C1129.29 23.2114 1140.89 15.6964 1154.41 10.1737L1153.66 8.32223C1139.91 13.9356 1128.09 21.5886 1118.2 31.2859L1119.6 32.7141ZM1154.42 10.1691C1167.92 4.46688 1182.86 1.60799 1199.25 1.60799V-0.392006C1182.62 -0.392006 1167.41 2.50909 1153.64 8.32684L1154.42 10.1691ZM1199.25 1.60799C1212.97 1.60799 1225.92 3.70388 1238.09 7.88969L1238.74 5.99831C1226.34 1.73611 1213.18 -0.392006 1199.25 -0.392006V1.60799ZM1238.09 7.88969C1250.27 12.0747 1261 18.1573 1270.31 26.1353L1271.61 24.6167C1262.1 16.4666 1251.14 10.2613 1238.74 5.99831L1238.09 7.88969ZM1270.32 26.1417C1279.81 34.1175 1287.61 43.9013 1293.69 55.5045L1295.46 54.5754C1289.26 42.7547 1281.31 32.7625 1271.6 24.6103L1270.32 26.1417ZM1293.7 55.5106C1299.77 66.9037 1303.58 79.8329 1305.1 94.3127L1307.09 94.1033C1305.54 79.3991 1301.67 66.2162 1295.46 54.5694L1293.7 55.5106ZM1306.1 93.208H1249.07V95.208H1306.1V93.208ZM1391.92 212H1390.92V213H1391.92V212ZM1391.92 59.36H1392.92V58.36H1391.92V59.36ZM1334.61 59.36H1333.61V60.36H1334.61V59.36ZM1334.61 6.36799V5.36799H1333.61V6.36799H1334.61ZM1508.56 6.36799H1509.56V5.36799H1508.56V6.36799ZM1508.56 59.36V60.36H1509.56V59.36H1508.56ZM1451.25 59.36V58.36H1450.25V59.36H1451.25ZM1451.25 212V213H1452.25V212H1451.25ZM1392.92 212V59.36H1390.92V212H1392.92ZM1391.92 58.36H1334.61V60.36H1391.92V58.36ZM1335.61 59.36V6.36799H1333.61V59.36H1335.61ZM1334.61 7.36799H1508.56V5.36799H1334.61V7.36799ZM1507.56 6.36799V59.36H1509.56V6.36799H1507.56ZM1508.56 58.36H1451.25V60.36H1508.56V58.36ZM1450.25 59.36V212H1452.25V59.36H1450.25ZM1451.25 211H1391.92V213H1451.25V211ZM1668.34 67.712L1667.36 67.9336L1667.54 68.712H1668.34V67.712ZM1662.87 57.632L1662.16 58.3391L1662.17 58.3522L1662.19 58.3648L1662.87 57.632ZM1653.94 51.872L1653.56 52.7967L1653.57 52.8004L1653.58 52.804L1653.94 51.872ZM1643.28 49.28L1643.18 50.275L1643.28 49.28ZM1622.55 48.992L1622.49 47.9934L1622.55 48.992ZM1612.18 51.008L1612.46 51.9674L1612.49 51.9598L1612.51 51.951L1612.18 51.008ZM1603.83 55.616L1603.15 54.8788V54.8788L1603.83 55.616ZM1603.54 72.32L1602.83 73.0271L1602.86 73.0592L1602.9 73.0882L1603.54 72.32ZM1611.89 76.928L1611.56 77.871L1611.89 76.928ZM1621.97 79.52L1621.81 80.5064L1621.97 79.52ZM1631.19 80.96L1631.4 79.9822L1631.36 79.9749L1631.33 79.97L1631.19 80.96ZM1648.47 84.416L1648.28 85.3989L1648.3 85.4021L1648.32 85.4047L1648.47 84.416ZM1667.19 87.872L1666.97 88.8489L1666.99 88.8521L1667 88.8549L1667.19 87.872ZM1685.04 92.48L1684.73 93.4287L1684.75 93.4349L1684.76 93.4403L1685.04 92.48ZM1701.17 99.392L1701.69 98.5361L1701.69 98.5345L1701.17 99.392ZM1720.47 119.552L1719.56 119.972L1719.56 119.981L1719.57 119.99L1720.47 119.552ZM1719.03 180.032L1718.14 179.562L1718.14 179.57L1718.14 179.577L1719.03 180.032ZM1699.73 201.92L1700.29 202.752L1700.29 202.749L1699.73 201.92ZM1671.22 213.44L1671.01 212.461L1671 212.464L1670.99 212.466L1671.22 213.44ZM1614.19 215.168L1614.36 214.182L1614.35 214.181L1614.34 214.179L1614.19 215.168ZM1591.15 209.12L1590.8 210.053L1590.8 210.056L1591.15 209.12ZM1569.84 198.176L1569.28 199.001L1569.29 199.006L1569.29 199.012L1569.84 198.176ZM1552.56 181.184L1553.38 180.603L1553.37 180.593L1552.56 181.184ZM1543.06 163.616L1542.1 163.914L1542.11 163.932L1542.12 163.95L1543.06 163.616ZM1538.74 144.32V143.32H1537.59L1537.75 144.461L1538.74 144.32ZM1592.31 144.32L1593.27 144.036L1593.05 143.32H1592.31V144.32ZM1599.79 156.992L1599.11 157.719L1599.13 157.739L1599.15 157.757L1599.79 156.992ZM1611.89 164.192L1612.26 163.261L1611.89 164.192ZM1626 167.648L1626.12 166.655L1626 167.648ZM1650.48 168.224L1650.53 169.223L1650.48 168.224ZM1670.35 161.888L1671 162.651L1670.35 161.888ZM1670.35 144.032L1669.74 144.825L1669.76 144.84L1669.79 144.854L1670.35 144.032ZM1661.71 139.424L1662.05 138.481L1662.01 138.466L1661.96 138.456L1661.71 139.424ZM1614.77 130.496L1614.57 131.475L1614.58 131.477L1614.59 131.48L1614.77 130.496ZM1590.58 123.872L1590.26 124.818L1590.58 123.872ZM1569.55 112.928L1568.94 113.716L1568.95 113.722L1568.95 113.728L1569.55 112.928ZM1554.58 94.784L1553.68 95.2312L1553.69 95.2405L1553.69 95.2497L1554.58 94.784ZM1556.59 36.32L1557.46 36.8288L1557.46 36.8203L1556.59 36.32ZM1576.18 15.584L1576.72 16.4252L1576.73 16.4207L1576.73 16.416L1576.18 15.584ZM1603.54 4.06398L1603.32 3.08778L1603.32 3.08867L1603.54 4.06398ZM1692.24 17.024L1691.67 17.8469L1691.68 17.8515L1691.69 17.856L1692.24 17.024ZM1712.11 37.76L1711.26 38.283L1711.27 38.29L1711.27 38.2969L1712.11 37.76ZM1721.04 67.712V68.712H1722.09L1722.04 67.662L1721.04 67.712ZM1669.31 67.4904C1668.32 63.1065 1666.41 59.5554 1663.55 56.8992L1662.19 58.3648C1664.7 60.7006 1666.44 63.8695 1667.36 67.9336L1669.31 67.4904ZM1663.57 56.9249C1660.97 54.3259 1657.88 52.3317 1654.3 50.94L1653.58 52.804C1656.91 54.1003 1659.77 55.9461 1662.16 58.3391L1663.57 56.9249ZM1654.32 50.9473C1650.96 49.563 1647.31 48.6777 1643.38 48.285L1643.18 50.275C1646.94 50.6503 1650.39 51.4929 1653.56 52.7967L1654.32 50.9473ZM1643.38 48.285C1639.51 47.898 1635.83 47.704 1632.34 47.704V49.704C1635.76 49.704 1639.37 49.894 1643.18 50.275L1643.38 48.285ZM1632.34 47.704C1629.44 47.704 1626.16 47.8007 1622.49 47.9934L1622.6 49.9906C1626.23 49.7993 1629.48 49.704 1632.34 49.704V47.704ZM1622.49 47.9934C1618.76 48.1901 1615.21 48.8794 1611.85 50.065L1612.51 51.951C1615.68 50.8326 1619.04 50.1779 1622.6 49.9906L1622.49 47.9934ZM1611.9 50.0486C1608.5 51.0478 1605.58 52.6548 1603.15 54.8788L1604.5 56.3531C1606.68 54.3532 1609.33 52.8882 1612.46 51.9674L1611.9 50.0486ZM1603.15 54.8788C1600.61 57.2123 1599.37 60.379 1599.37 64.256H1601.37C1601.37 60.837 1602.44 58.2436 1604.5 56.3531L1603.15 54.8788ZM1599.37 64.256C1599.37 67.7581 1600.51 70.7092 1602.83 73.0271L1604.25 71.6129C1602.34 69.7068 1601.37 67.2819 1601.37 64.256H1599.37ZM1602.9 73.0882C1605.31 75.095 1608.2 76.6855 1611.56 77.871L1612.22 75.985C1609.05 74.8665 1606.38 73.385 1604.18 71.5518L1602.9 73.0882ZM1611.56 77.871C1614.88 79.0426 1618.29 79.921 1621.81 80.5064L1622.14 78.5336C1618.74 77.967 1615.43 77.1174 1612.22 75.985L1611.56 77.871ZM1621.81 80.5064C1625.27 81.0833 1628.35 81.5646 1631.05 81.95L1631.33 79.97C1628.65 79.5874 1625.59 79.1087 1622.14 78.5336L1621.81 80.5064ZM1630.98 81.9378C1636.36 83.0918 1642.13 84.2455 1648.28 85.3989L1648.65 83.4331C1642.51 82.2825 1636.76 81.1322 1631.4 79.9822L1630.98 81.9378ZM1648.32 85.4047C1654.63 86.3615 1660.85 87.5096 1666.97 88.8489L1667.4 86.8951C1661.23 85.5464 1654.97 84.3905 1648.62 83.4273L1648.32 85.4047ZM1667 88.8549C1673.1 89.9987 1679.01 91.5235 1684.73 93.4287L1685.36 91.5313C1679.55 89.5965 1673.56 88.0493 1667.37 86.8891L1667 88.8549ZM1684.76 93.4403C1690.64 95.1469 1695.94 97.4182 1700.66 100.249L1701.69 98.5345C1696.8 95.6058 1691.35 93.2691 1685.32 91.5197L1684.76 93.4403ZM1700.65 100.248C1709.74 105.738 1716.01 112.321 1719.56 119.972L1721.37 119.132C1717.62 111.039 1711.03 104.182 1701.69 98.5361L1700.65 100.248ZM1719.57 119.99C1723.33 127.703 1725.23 136.668 1725.23 146.912H1727.23C1727.23 136.42 1725.28 127.145 1721.37 119.114L1719.57 119.99ZM1725.23 146.912C1725.23 159.848 1722.85 170.718 1718.14 179.562L1719.91 180.502C1724.8 171.298 1727.23 160.088 1727.23 146.912H1725.23ZM1718.14 179.577C1713.6 188.453 1707.28 195.619 1699.17 201.091L1700.29 202.749C1708.69 197.085 1715.23 189.659 1719.92 180.487L1718.14 179.577ZM1699.18 201.088C1691.23 206.383 1681.85 210.18 1671.01 212.461L1671.42 214.419C1682.47 212.092 1692.1 208.209 1700.29 202.752L1699.18 201.088ZM1670.99 212.466C1660.32 214.943 1648.88 216.184 1636.66 216.184V218.184C1649.01 218.184 1660.61 216.929 1671.44 214.414L1670.99 212.466ZM1636.66 216.184C1629.62 216.184 1622.19 215.518 1614.36 214.182L1614.03 216.154C1621.95 217.506 1629.49 218.184 1636.66 218.184V216.184ZM1614.34 214.179C1606.74 213.038 1599.12 211.04 1591.51 208.184L1590.8 210.056C1598.55 212.96 1606.29 214.994 1614.05 216.157L1614.34 214.179ZM1591.51 208.187C1584.09 205.332 1577.05 201.717 1570.39 197.34L1569.29 199.012C1576.07 203.467 1583.24 207.148 1590.8 210.053L1591.51 208.187ZM1570.41 197.351C1563.79 192.81 1558.11 187.229 1553.38 180.603L1551.75 181.765C1556.62 188.579 1562.46 194.326 1569.28 199.001L1570.41 197.351ZM1553.37 180.593C1549.2 174.901 1546.08 169.131 1544 163.282L1542.12 163.95C1544.26 170.005 1547.48 175.947 1551.76 181.775L1553.37 180.593ZM1544.01 163.318C1542.11 157.228 1540.68 150.848 1539.73 144.179L1537.75 144.461C1538.72 151.232 1540.17 157.716 1542.1 163.914L1544.01 163.318ZM1538.74 145.32H1592.31V143.32H1538.74V145.32ZM1591.35 144.604C1592.93 149.934 1595.51 154.318 1599.11 157.719L1600.48 156.265C1597.17 153.138 1594.76 149.074 1593.27 144.036L1591.35 144.604ZM1599.15 157.757C1602.88 160.899 1607.01 163.355 1611.53 165.123L1612.26 163.261C1607.94 161.573 1604 159.229 1600.44 156.227L1599.15 157.757ZM1611.53 165.123C1616.03 166.884 1620.82 168.056 1625.89 168.641L1626.12 166.655C1621.21 166.088 1616.59 164.956 1612.26 163.261L1611.53 165.123ZM1625.89 168.641C1630.91 169.221 1635.75 169.512 1640.4 169.512V167.512C1635.84 167.512 1631.07 167.227 1626.12 166.655L1625.89 168.641ZM1640.4 169.512C1643.3 169.512 1646.68 169.415 1650.53 169.223L1650.43 167.225C1646.6 167.417 1643.26 167.512 1640.4 167.512V169.512ZM1650.53 169.223C1654.44 169.027 1658.16 168.441 1661.69 167.46L1661.16 165.532C1657.78 166.471 1654.2 167.037 1650.43 167.225L1650.53 169.223ZM1661.69 167.46C1665.28 166.465 1668.38 164.865 1671 162.651L1669.71 161.125C1667.33 163.135 1664.49 164.607 1661.16 165.532L1661.69 167.46ZM1671 162.651C1673.76 160.315 1675.1 157.037 1675.1 152.96H1673.1C1673.1 156.563 1671.94 159.236 1669.71 161.125L1671 162.651ZM1675.1 152.96C1675.1 148.547 1673.79 145.192 1670.92 143.21L1669.79 144.854C1671.91 146.328 1673.1 148.925 1673.1 152.96H1675.1ZM1670.96 143.239C1668.38 141.249 1665.4 139.665 1662.05 138.481L1661.38 140.367C1664.56 141.487 1667.34 142.975 1669.74 144.825L1670.96 143.239ZM1661.96 138.456C1655.21 136.719 1647.79 135.178 1639.7 133.83L1639.37 135.802C1647.41 137.142 1654.78 138.673 1661.47 140.392L1661.96 138.456ZM1639.7 133.83C1631.64 132.486 1623.39 131.047 1614.95 129.512L1614.59 131.48C1623.04 133.017 1631.31 134.458 1639.37 135.802L1639.7 133.83ZM1614.98 129.517C1606.76 127.797 1598.73 125.6 1590.9 122.926L1590.26 124.818C1598.17 127.52 1606.27 129.739 1614.57 131.475L1614.98 129.517ZM1590.9 122.926C1583.12 120.269 1576.21 116.668 1570.15 112.128L1568.95 113.728C1575.19 118.404 1582.29 122.099 1590.26 124.818L1590.9 122.926ZM1570.17 112.14C1564.14 107.432 1559.24 101.496 1555.46 94.3183L1553.69 95.2497C1557.6 102.664 1562.68 108.824 1568.94 113.716L1570.17 112.14ZM1555.47 94.3368C1551.91 87.2166 1550.11 78.3561 1550.11 67.712H1548.11C1548.11 78.5718 1549.95 87.7594 1553.68 95.2312L1555.47 94.3368ZM1550.11 67.712C1550.11 55.3631 1552.58 45.0861 1557.46 36.8287L1555.73 35.8113C1550.63 44.4499 1548.11 55.1009 1548.11 67.712H1550.11ZM1557.46 36.8203C1562.38 28.3123 1568.79 21.5195 1576.72 16.4252L1575.64 14.7428C1567.43 20.0165 1560.8 27.0476 1555.73 35.8197L1557.46 36.8203ZM1576.73 16.416C1584.69 11.1128 1593.69 7.31841 1603.76 5.0393L1603.32 3.08867C1593.03 5.41756 1583.8 9.30317 1575.62 14.7519L1576.73 16.416ZM1603.76 5.04017C1614.05 2.75162 1624.35 1.60799 1634.64 1.60799V-0.392006C1624.2 -0.392006 1613.76 0.768364 1603.32 3.08779L1603.76 5.04017ZM1634.64 1.60799C1644.92 1.60799 1655.01 2.9405 1664.91 5.60561L1665.43 3.67438C1655.36 0.963486 1645.1 -0.392006 1634.64 -0.392006V1.60799ZM1664.91 5.60561C1674.79 8.2656 1683.71 12.3472 1691.67 17.8469L1692.81 16.2011C1684.65 10.5648 1675.52 6.39038 1665.43 3.67438L1664.91 5.60561ZM1691.69 17.856C1699.63 23.1499 1706.15 29.9555 1711.26 38.283L1712.97 37.237C1707.71 28.6685 1700.98 21.6501 1692.8 16.1919L1691.69 17.856ZM1711.27 38.2969C1716.54 46.5778 1719.48 56.3883 1720.04 67.7619L1722.04 67.662C1721.46 55.9956 1718.44 45.8382 1712.96 37.2231L1711.27 38.2969ZM1721.04 66.712H1668.34V68.712H1721.04V66.712Z" fill="black" fill-opacity="0.11"/>
</svg>
